<svg width="56" height="56" fill="none" xmlns="http://www.w3.org/2000/svg"><path opacity=".24" d="M2 6a4 4 0 014-4h7v46H6a4 4 0 01-4-4V6z" fill="#1062FE"></path><rect x="2" y="2" width="48" height="46" rx="4" stroke="#1062FE" stroke-width="2" stroke-linejoin="round"></rect><rect opacity=".24" width="14" height="12" rx="2" transform="matrix(-1 0 0 1 30 11)" fill="#A5AEBF"></rect><rect opacity=".24" width="14" height="12" rx="2" transform="matrix(-1 0 0 1 46 11)" fill="#A5AEBF"></rect><rect opacity=".24" width="14" height="12" rx="2" transform="matrix(-1 0 0 1 30 25)" fill="#A5AEBF"></rect><rect opacity=".24" width="14" height="12" rx="2" transform="matrix(-1 0 0 1 46 25)" fill="#A5AEBF"></rect><path d="M9.556 12H6.445" stroke="#1062FE" stroke-width="2" stroke-linecap="round" stroke-linejoin="round"></path><path clip-rule="evenodd" d="M9 7H7v2h2V7z" stroke="#1062FE" stroke-width="2" stroke-linecap="round" stroke-linejoin="round"></path><g opacity=".32" stroke="#1062FE" stroke-width="2" stroke-linecap="round" stroke-linejoin="round"><path d="M9.556 21H6.445"></path><path clip-rule="evenodd" d="M9 16H7v2h2v-2z"></path><path d="M9.556 30H6.445"></path><path clip-rule="evenodd" d="M9 25H7v2h2v-2z"></path><path d="M9.556 39H6.445"></path><path clip-rule="evenodd" d="M9 34H7v2h2v-2z"></path></g><path d="M17 6h6" stroke="#1265FF" stroke-width="2" stroke-linecap="round" stroke-linejoin="round"></path><path d="M45 45c-5.523 0-10 4.477-10 10h20c0-5.523-4.477-10-10-10z" fill="#1062FE" stroke="#1062FE" stroke-width="2" stroke-linecap="round" stroke-linejoin="round"></path><circle cx="45" cy="37.5" fill="#1062FE" r="5.5"></circle></svg>