<svg width="144" height="144" fill="none" xmlns="http://www.w3.org/2000/svg"><path d="M74 138h-6a.998.998 0 00-1 1v1a3.998 3.998 0 006.828 2.828A3.998 3.998 0 0075 140v-1a1 1 0 00-1-1zm12.7-4.7l-3.7-3.72V120a11.998 11.998 0 00-12-12 11.998 11.998 0 00-12 12v9.58l-3.7 3.72a.942.942 0 00-.3.7v1a.999.999 0 001 1h30a.998.998 0 001-1v-1a.943.943 0 00-.3-.7z" fill="#CED3DB"></path><path d="M89 120c5.523 0 10-4.477 10-10s-4.477-10-10-10-10 4.477-10 10 4.477 10 10 10z" fill="#E5699E" stroke="#fff" stroke-width="6"></path><path d="M14 10a8 8 0 018-8h102a8 8 0 018 8v59a8 8 0 01-8 8H22a8 8 0 01-8-8V10z" fill="#F0F2F5"></path><path d="M8 18a8 8 0 018-8h114a8 8 0 018 8v59a8 8 0 01-8 8H16a8 8 0 01-8-8V18z" fill="#DCDEE2"></path><path fill-rule="evenodd" clip-rule="evenodd" d="M12 18a8 8 0 00-8 8v56a8 8 0 008 8h50.07c.083.107.173.21.272.308l9.033 8.968a3.026 3.026 0 004.258 0l9.033-8.968c.098-.098.189-.2.27-.308H134a8 8 0 008-8V26a8 8 0 00-8-8H12z" fill="url(#icon_svg__client-notificationa)"></path><path d="M33 63h76M34 48h37" stroke="#fff" stroke-width="6" stroke-linecap="round" stroke-linejoin="round"></path><defs><linearGradient id="icon_svg__client-notificationa" x1="73" y1="18" x2="73" y2="100.151" gradientUnits="userSpaceOnUse"><stop stop-color="#E1619E"></stop><stop offset="1" stop-color="#FD959E"></stop></linearGradient></defs></svg>