<svg width="519" height="698" viewBox="0 0 519 698" fill="none" xmlns="http://www.w3.org/2000/svg" class="lines main-animation-cms__lines" style="" data-v-3e30bb2e=""><g data-v-3e30bb2e=""><path d="M1.10925 444.584C1.10925 444.584 54.1019 475.907 112.347 511.233C150.004 535.218 137.79 551.002 85.4307 580.697C33.0717 610.392 0.818667 629.614 0.818667 629.614" stroke="#B7BDC9" class="st0" data-v-3e30bb2e="" stroke-dasharray="330.21" style="stroke-dashoffset: -660px;"></path></g> <g data-v-3e30bb2e=""><path d="M0.000224113 308.299C0.000224113 308.299 126.761 383.624 220.545 439.443C295.534 484.076 236.317 515.584 165.647 554.763C83.9763 600.041 0.000224113 650.158 0.000224113 650.158" stroke="#B7BDC9" class="st1" data-v-3e30bb2e="" stroke-dasharray="624.13" style="stroke-dashoffset: -1248px;"></path></g> <g data-v-3e30bb2e=""><path d="M0.0933924 170.843C0.0933924 170.843 240.061 315.668 347.085 379.858C433.467 431.668 332.324 485.268 255.098 528.164C165.851 577.736 1.28073 670.425 1.28073 670.425" stroke="#B7BDC9" class="st2" data-v-3e30bb2e="" stroke-dasharray="921.61" style="stroke-dashoffset: -1843px;"></path></g> <g data-v-3e30bb2e=""><path d="M0.0133211 1C0.0133211 1 335.033 197.404 458.336 270.888C554.092 327.956 529.005 399.852 422.889 459.158C324.265 514.279 0.0133211 697 0.0133211 697" stroke="#B7BDC9" class="st3" data-v-3e30bb2e="" stroke-dasharray="1273" style="stroke-dashoffset: -2544px;"></path></g></svg>