<svg width="35" height="44" fill="none" xmlns="http://www.w3.org/2000/svg"><g clip-path="url(#icon-lagom-logo_svg__clip0)"><path d="M1.741 35.282l13.828 7.805c.091.053.187.098.286.135.46.186.952.28 1.45.276.604.01 1.201-.13 1.735-.41l13.823-7.806c.237-.087.44-.243.584-.447a1.198 1.198 0 000-1.383 1.241 1.241 0 00-.584-.447l-10.714-6.05a1.563 1.563 0 00-.754-.196 1.52 1.52 0 00-.969.341 1.46 1.46 0 00-.515.872l-2.328 12.7V11.494a3.422 3.422 0 00-.503-1.674 3.455 3.455 0 00-1.232-1.26L2.02.748A1.394 1.394 0 00.614.64a1.364 1.364 0 00-.479.542 1.33 1.33 0 00-.13.706V32.34a3.4 3.4 0 00.507 1.678 3.49 3.49 0 001.229 1.263z" fill="#1062FE"></path></g><defs><clipPath id="icon-lagom-logo_svg__clip0"><path fill="#fff" transform="translate(0 .5)" d="M0 0h115v43H0z"></path></clipPath></defs></svg>