<svg width="144" height="144" fill="none" xmlns="http://www.w3.org/2000/svg"><path d="M.728 29.882a9.615 9.615 0 015.154-5.154l.193.463a8.936 8.936 0 013.449-.69h3.155V24h6.31v.502h6.309V24h6.31v.502h6.309V24h6.31v.502h6.309V24h6.31v.502h6.309V24h6.31v.502h6.309V24h6.31v.502h6.309V24h6.31v.502h6.309V24h6.309v.502h3.155a8.94 8.94 0 013.449.689l.193-.463a9.615 9.615 0 015.154 5.154l-.463.193a8.93 8.93 0 01.689 3.449v3.155H120v6.31h-.502v6.309H120v6.31h-.502v6.309H120v6.31h-.502v6.309H120v6.31h-.502v6.309H120v6.31h-.502v6.309H120v6.309h-.502v6.31H120v6.309h-.502v6.31H120v6.309h-.502v3.155c0 1.22-.245 2.385-.689 3.449l.463.193a9.614 9.614 0 01-5.154 5.154l-.193-.463a8.935 8.935 0 01-3.449.689h-3.155V144h-6.309v-.502h-6.31V144h-6.31v-.502h-6.309V144h-6.31v-.502h-6.309V144h-6.31v-.502h-6.309V144h-6.31v-.502h-6.309V144h-6.31v-.502h-6.309V144h-6.31v-.502h-6.309V144h-6.31v-.502H9.525a8.93 8.93 0 01-3.449-.689l-.193.463a9.615 9.615 0 01-5.154-5.154l.463-.193a8.94 8.94 0 01-.69-3.449v-3.155H0v-6.309h.502v-6.31H0v-6.309h.502v-6.31H0v-6.31h.502v-6.309H0v-6.31h.502v-6.309H0v-6.31h.502v-6.309H0v-6.31h.502v-6.309H0v-6.31h.502v-6.309H0v-6.31h.502v-3.154c0-1.22.245-2.385.689-3.449l-.463-.193z" stroke="#A5AEBF" stroke-width="1.003" stroke-dasharray="6 6"></path><path d="M31.619 0h104.762C140.571 0 144 3.429 144 7.619v104.762c0 4.19-3.429 7.619-7.619 7.619H31.619c-4.19 0-7.619-3.429-7.619-7.619V7.619C24 3.43 27.429 0 31.619 0z" fill="url(#icon_svg__promomanager-icon_paint0_linear)"></path><path d="M48 56h76M68 41h37" stroke="#BB6E48" stroke-width="6" stroke-linecap="round" stroke-linejoin="round"></path><path d="M70 76h32.111" stroke="#fff" stroke-width="16" stroke-linecap="round" stroke-linejoin="round"></path><path d="M123.93 10.035l8.028 8.028M131.958 10.035l-8.028 8.028" stroke="#fff" stroke-width="2.007" stroke-linecap="round" stroke-linejoin="round"></path><defs><linearGradient id="icon_svg__promomanager-icon_paint0_linear" x1="84" y1="0" x2="84" y2="120" gradientUnits="userSpaceOnUse"><stop stop-color="#FFBC79"></stop><stop offset="1" stop-color="#FBDC8F"></stop></linearGradient></defs></svg>