<svg width="144" height="144" fill="none" xmlns="http://www.w3.org/2000/svg"><path d="M11 44a8 8 0 018-8h104a8 8 0 018 8v70a8 8 0 01-8 8H19a8 8 0 01-8-8V44z" fill="#CED3DB"></path><path d="M21 9a8 8 0 018-8h84a8 8 0 018 8v88a8 8 0 01-8 8H29a8 8 0 01-8-8V9z" fill="url(#icon_svg__paint0_linear_15933_66010)"></path><path d="M2.583 72.337C1.755 67.454 5.519 63 10.472 63H69.5c6.94 0 15.87-10 23-10h40.122c4.92 0 8.677 4.4 7.902 9.26l-8.449 52.999a8 8 0 01-7.901 6.741H17.758a8 8 0 01-7.887-6.663l-7.288-43z" fill="#F2F4F8"></path><rect x="44" y="20" width="56" height="22" rx="11" fill="#fff"></rect><path d="M55.773 35.559a.922.922 0 01-.214-1.38l1.057-1.25c.447-.527.185-1.32-.496-1.506l-1.402-.382c-.542-.148-.845-.699-.667-1.21l.101-.29c.183-.523.792-.786 1.323-.57l1.29.524c.678.275 1.421-.23 1.372-.934l-.107-1.552c-.038-.546.414-1.009.986-1.009h.398c.573 0 1.026.465.985 1.013l-.119 1.623c-.052.705.692 1.213 1.371.938l1.195-.485c.533-.216 1.145.051 1.324.579l.103.303c.174.512-.131 1.059-.672 1.204l-1.463.394c-.682.183-.947.975-.504 1.504l.99 1.18a.921.921 0 01-.2 1.366l-.307.208a1.014 1.014 0 01-1.414-.282l-.792-1.247c-.382-.6-1.29-.608-1.68-.013l-.777 1.182c-.298.453-.927.58-1.39.28l-.29-.188z" fill="url(#icon_svg__paint1_linear_15933_66010)"></path><path d="M69.606 35.559a.922.922 0 01-.214-1.38l1.057-1.25c.447-.527.185-1.32-.496-1.506l-1.403-.382c-.541-.148-.844-.699-.666-1.21l.1-.29c.183-.523.793-.786 1.324-.57l1.29.524c.678.275 1.42-.23 1.372-.934l-.107-1.552c-.038-.546.414-1.009.986-1.009h.398c.573 0 1.025.465.985 1.013l-.119 1.623c-.052.705.692 1.213 1.37.938l1.195-.485c.534-.216 1.146.051 1.325.579l.103.303c.174.512-.131 1.059-.672 1.204l-1.463.394c-.683.183-.948.975-.504 1.504l.99 1.18a.921.921 0 01-.2 1.366l-.307.208a1.014 1.014 0 01-1.414-.282l-.792-1.247c-.382-.6-1.29-.608-1.68-.013l-.777 1.182c-.298.453-.927.58-1.39.28l-.291-.188z" fill="url(#icon_svg__paint2_linear_15933_66010)"></path><path d="M82.45 35.559a.922.922 0 01-.213-1.38l1.057-1.25c.446-.527.185-1.32-.497-1.506l-1.402-.382c-.541-.148-.845-.699-.666-1.21l.1-.29c.183-.523.793-.786 1.323-.57l1.291.524c.678.275 1.42-.23 1.372-.934l-.107-1.552c-.038-.546.414-1.009.986-1.009h.397c.573 0 1.026.465.986 1.013l-.12 1.623c-.051.705.693 1.213 1.372.938l1.194-.485c.534-.216 1.146.051 1.325.579l.103.303c.174.512-.132 1.059-.672 1.204l-1.464.394c-.682.183-.947.975-.503 1.504l.99 1.18a.921.921 0 01-.2 1.366l-.307.208a1.014 1.014 0 01-1.415-.282l-.791-1.247c-.382-.6-1.29-.608-1.68-.013l-.778 1.182c-.297.453-.927.58-1.39.28l-.29-.188z" fill="url(#icon_svg__paint3_linear_15933_66010)"></path><path d="M50 68.2c-5.523 0-10 4.477-10 10v30.356c0 18.734 25.714 33.984 31.5 33.984 5.786 0 31.5-15.25 31.5-33.984V78.2c0-5.523-4.477-10-10-10H50z" fill="url(#icon_svg__paint4_linear_15933_66010)"></path><rect x="59.13" y="97.99" width="26" height="19" rx="3" fill="#fff"></rect><rect x="66.13" y="88.99" width="12" height="18" rx="6" stroke="#fff" stroke-width="4"></rect><defs><linearGradient id="icon_svg__paint0_linear_15933_66010" x1="71" y1="1" x2="71" y2="105" gradientUnits="userSpaceOnUse"><stop stop-color="#299362"></stop><stop offset="1" stop-color="#74CE85"></stop></linearGradient><linearGradient id="icon_svg__paint1_linear_15933_66010" x1="72.5" y1="26" x2="72.5" y2="36" gradientUnits="userSpaceOnUse"><stop stop-color="#299362"></stop><stop offset="1" stop-color="#74CE85"></stop></linearGradient><linearGradient id="icon_svg__paint2_linear_15933_66010" x1="72.5" y1="26" x2="72.5" y2="36" gradientUnits="userSpaceOnUse"><stop stop-color="#299362"></stop><stop offset="1" stop-color="#74CE85"></stop></linearGradient><linearGradient id="icon_svg__paint3_linear_15933_66010" x1="72.5" y1="26" x2="72.5" y2="36" gradientUnits="userSpaceOnUse"><stop stop-color="#299362"></stop><stop offset="1" stop-color="#74CE85"></stop></linearGradient><linearGradient id="icon_svg__paint4_linear_15933_66010" x1="71.5" y1="68.2" x2="71.5" y2="142.54" gradientUnits="userSpaceOnUse"><stop stop-color="#299362"></stop><stop offset="1" stop-color="#74CE85"></stop></linearGradient></defs></svg>