<svg width="224" height="207" fill="none" xmlns="http://www.w3.org/2000/svg" data-v-6380b091=""><path fill="#fff" d="M0 0h224v207H0z"></path><path d="M116 83v18.5l6.5-4 6 3.5M121 80v11.5l6.5-4 8 4.5 4.5-2.5M126 77v6.5l6-3.5m-26 8.5v19l-7-4m2-13v8l-7-4-5.5 3M111 86v24.5l5.5-3" stroke="#1062FE" stroke-width="2" stroke-linecap="round" stroke-linejoin="round"></path><path d="M138 61c0 9.277.369 8.827-2.749 10.602l-2.244 1.28c-.058.03-.087.059-.145.088-.059 0-.088.03-.146.058l-27.072 15.484a.407.407 0 00-.117.087c-.058.03-.116.058-.175.087l-.612.35c-1.661.96-3.846 1.426-6.032 1.426-3.322.204-6.731-.408-9.238-1.863C86.33 86.775 87 85.5 87 78c0-1.058 1-3 1-3 .5-2-1.5-7.5 3.5-12" stroke="#17191C" stroke-width="2"></path><path d="M98.797 83.759h-.03l-.03.002c-3.265.196-6.548-.4-8.9-1.74h0l-.01-.004c-2.249-1.252-2.879-2.322-2.828-3.473.055-1.242.89-2.932 2.796-4.002a12.467 12.467 0 012.394-.996l1.847-.542-1.506-1.2c-2.213-1.762-3.023-3.718-2.776-5.494.251-1.807 1.638-3.756 4.521-5.374h0l.004-.002c5.037-2.852 12.694-3.47 18.971-1.829l.645.169.404-.532a7.924 7.924 0 012.573-2.177h0l.012-.007c2.425-1.355 5.668-2.062 8.97-2.058 3.302.004 6.553.717 8.993 2.087l.013.007.012.006a7.894 7.894 0 012.707 2.33c.33.545.563 1.678.322 2.922-.236 1.219-.899 2.4-2.186 3.119h-.001l-2.28 1.275a1.418 1.418 0 00-.067.037 1.135 1.135 0 00-.21.098h-.001l-.014.007-.024.014-27.693 15.52a1.4 1.4 0 00-.201.126l-.065.032-.025.012-.024.014-.626.35h0l-.005.003c-1.51.855-3.565 1.3-5.682 1.3z" stroke="#17191C" stroke-width="2"></path><path d="M106.287 73.472h-.031l-.031.002c-2.287.142-4.566-.294-6.181-1.246h0l-.008-.005c-1.198-.69-1.615-1.111-1.81-1.5-.206-.413-.252-.955-.226-2.202.011-.527.008-1.139.004-1.836l-.001-.322c.376-.004.828.02 1.326.057l.308.023c.315.025.632.049.906.061.314.014.765.026 1.116-.08l-.163-1.949c-.74-.095-1.027-.156-1.184-.239l-.007-.003c-.029-.012-.099-.043-.173-.359-.096-.412-.138-1.079-.147-2.233-.004-.6 0-1.29.005-2.105.004-.606.008-1.28.01-2.037a5.636 5.636 0 01.565.025c.628.044 1.663.116 2.647-.456h0l.003-.002c3.514-2.062 8.892-2.52 13.309-1.323l.663.18.029-.04c.075.066.163.144.263.235l.046.042c.253.23.589.535.924.749.289.184 1.006.582 1.747.167l.006-.004.007-.004.531-.308c1.761-1.025 3.701-2.154 5.633-2.853 2.138-.773 4.011-.922 5.498-.057l.012.007.013.007c.544.296 1.086.227 1.461.114.227-.068.451-.17.634-.262l.005.984c.003.745.007 1.362.001 1.89-.009.96-.047 1.497-.127 1.842-.064.278-.141.377-.263.484-.179.157-.429.3-.926.588-.06.034-.123.07-.19.11h-.001l-1.624.94a2.714 2.714 0 01-.033.019 1.198 1.198 0 00-.148.072l-.013.008-.011.005-.024.014-19.768 11.479a1.217 1.217 0 00-.156.1l-.023.012-.025.012-.024.014-.447.26h0l-.005.002c-1.021.6-2.43.92-3.902.92zm10.564-17.865s.003 0 .009.004a.05.05 0 01-.009-.004z" fill="#1062FE" stroke="#1062FE" stroke-width="2"></path><path d="M106.374 69.31h-.03l-.031.002c-2.314.141-4.621-.29-6.257-1.231h0l-.008-.005c-1.646-.927-2.106-1.807-2.051-2.496.056-.701.671-1.72 2.027-2.49a8.621 8.621 0 011.668-.703l1.825-.543-1.483-1.194c-1.504-1.212-2.118-2.487-2.037-3.576.092-1.233 1.086-2.68 3.258-3.914h0l.004-.002c3.554-2.038 8.993-2.49 13.461-1.307l.651.172.404-.539a5.461 5.461 0 011.767-1.512l.006-.003.006-.004c1.695-.96 3.982-1.468 6.326-1.465 2.343.002 4.636.516 6.342 1.486l.012.007.013.006c1.005.534 1.791 1.858 1.754 2.967-.042 1.245-.242 2.156-1.153 2.67l-.001.001-1.64.929-.034.018a1.155 1.155 0 00-.148.07l-.014.008-.011.006-.024.014-19.961 11.322a1.319 1.319 0 00-.158.1l-.024.011-.025.012-.024.014-.451.256h0l-.005.002c-1.034.594-2.463.912-3.954.912z" fill="#009AFF" stroke="#009AFF" stroke-width="2"></path><path d="M131.134 102.196c-1.179.68-3.089.68-4.268 0-1.178-.681-1.178-1.784 0-2.464 1.179-.68 3.089-.68 4.268 0 1.178.68 1.178 1.783 0 2.464zM141.134 91.196c-1.179.68-3.089.68-4.268 0-1.178-.68-1.178-1.784 0-2.464 1.179-.68 3.089-.68 4.268 0 1.178.68 1.178 1.783 0 2.464zM134.134 81.196c-1.179.68-3.089.68-4.268 0-1.178-.68-1.178-1.784 0-2.464 1.179-.68 3.089-.68 4.268 0 1.178.68 1.178 1.783 0 2.464zM119.134 108.196c-1.179.68-3.089.68-4.268 0-1.178-.681-1.178-1.784 0-2.464 1.179-.68 3.089-.68 4.268 0 1.178.68 1.178 1.783 0 2.464zM100.134 104.196c-1.179.68-3.09.68-4.268 0-1.178-.681-1.178-1.784 0-2.464 1.179-.68 3.09-.68 4.268 0s1.178 1.783 0 2.464zM90.134 99.196c-1.179.68-3.09.68-4.268 0s-1.178-1.784 0-2.464c1.179-.68 3.09-.68 4.268 0s1.178 1.783 0 2.464z" fill="#009AFF"></path><path stroke="#E6E8EC" d="M0 158.5h224"></path><path d="M26.002 177.3h.102v.996h-.102c-.622 0-1.142.102-1.561.305a2.56 2.56 0 00-.997.806 3.315 3.315 0 00-.533 1.13 5.19 5.19 0 00-.159 1.276v1.358c0 .411.049.775.146 1.092.098.313.23.578.4.794.17.215.36.378.571.488.216.11.44.165.673.165.271 0 .512-.05.724-.152.212-.106.39-.252.533-.438.148-.19.26-.415.337-.673a2.99 2.99 0 00.114-.85c0-.275-.034-.54-.102-.794a2.115 2.115 0 00-.31-.685 1.493 1.493 0 00-1.27-.654c-.326 0-.63.08-.914.241-.28.157-.51.364-.692.622-.178.254-.28.531-.305.832l-.622-.007c.06-.474.17-.878.33-1.212.165-.339.368-.614.61-.825a2.3 2.3 0 01.818-.47c.305-.102.627-.152.965-.152.461 0 .86.086 1.193.26.335.173.61.406.826.698.215.288.374.614.476.978.105.359.158.73.158 1.111 0 .435-.061.844-.184 1.225a2.895 2.895 0 01-.552 1.003c-.241.287-.54.512-.895.672-.355.161-.768.242-1.238.242-.5 0-.935-.102-1.307-.305a2.793 2.793 0 01-.927-.825 3.766 3.766 0 01-.552-1.143 4.516 4.516 0 01-.184-1.276v-.552c0-.652.065-1.291.196-1.917a5.11 5.11 0 01.68-1.701 3.487 3.487 0 011.352-1.213c.575-.3 1.31-.45 2.202-.45zM35.054 183.444v.965h-6.678v-.692l4.139-6.405h.958l-1.028 1.854-2.736 4.278h5.345zm-1.289-6.132v9.243h-1.174v-9.243h1.174zM38.691 182.143v.965h-3.098v-.965h3.098zM42.589 185.717c.279 0 .537-.057.774-.172a1.59 1.59 0 00.584-.469c.152-.203.24-.434.26-.692h1.117a2.094 2.094 0 01-.412 1.136c-.25.347-.578.628-.984.844a2.851 2.851 0 01-1.34.318c-.516 0-.966-.091-1.351-.273a2.684 2.684 0 01-.953-.749 3.357 3.357 0 01-.565-1.092 4.611 4.611 0 01-.184-1.314v-.267c0-.461.062-.897.184-1.307.127-.415.316-.781.565-1.098.254-.318.572-.568.953-.749.385-.182.835-.273 1.352-.273.537 0 1.007.11 1.409.33.402.215.717.512.946.888.232.373.36.796.38 1.27h-1.117a1.689 1.689 0 00-.24-.768 1.499 1.499 0 00-.56-.546 1.558 1.558 0 00-.818-.21c-.36 0-.663.072-.908.216a1.59 1.59 0 00-.578.572c-.14.237-.24.501-.304.793-.06.288-.09.582-.09.882v.267c0 .3.03.597.09.889.059.292.158.556.298.793.144.237.336.427.578.571.245.14.55.21.914.21zM47.92 176.805v9.75h-1.18v-9.75h1.18zM49.495 183.197v-.146c0-.495.072-.954.216-1.378.144-.427.35-.797.622-1.111.27-.317.599-.562.984-.736a3.05 3.05 0 011.295-.266c.482 0 .916.088 1.3.266.39.174.72.419.991.736.275.314.485.684.629 1.111.143.424.215.883.215 1.378v.146c0 .495-.072.954-.215 1.377a3.296 3.296 0 01-.629 1.111c-.27.313-.599.559-.984.736-.38.174-.812.261-1.295.261-.482 0-.916-.087-1.301-.261a2.935 2.935 0 01-.99-.736 3.353 3.353 0 01-.622-1.111 4.25 4.25 0 01-.216-1.377zm1.174-.146v.146c0 .343.04.666.12.971.081.3.202.567.363.8.165.233.37.417.615.552.246.131.531.197.857.197.322 0 .603-.066.844-.197.246-.135.45-.319.61-.552.16-.233.281-.5.362-.8.084-.305.127-.628.127-.971v-.146c0-.339-.043-.658-.127-.959a2.475 2.475 0 00-.368-.806 1.704 1.704 0 00-1.46-.762c-.322 0-.606.068-.851.204a1.82 1.82 0 00-.61.558c-.16.233-.28.502-.361.806-.08.301-.12.62-.12.959zM61.422 184.968v-5.281h1.18v6.868H61.48l-.057-1.587zm.222-1.447l.49-.013c0 .457-.05.88-.147 1.269-.093.385-.245.72-.457 1.003a2.16 2.16 0 01-.831.667c-.343.156-.76.235-1.251.235a2.79 2.79 0 01-.92-.146 1.848 1.848 0 01-.711-.451 2.054 2.054 0 01-.464-.793c-.105-.326-.158-.718-.158-1.175v-4.43h1.174v4.443c0 .309.034.565.102.768.071.199.167.358.285.476.123.114.258.195.406.241.153.047.31.07.47.07.5 0 .895-.095 1.187-.286.292-.194.502-.455.628-.78.132-.33.197-.696.197-1.098zM68.722 185.222v-8.417h1.18v9.75h-1.079l-.101-1.333zm-4.621-2.025v-.134c0-.524.063-1 .19-1.428.131-.431.316-.802.553-1.111.24-.309.526-.545.856-.711a2.44 2.44 0 011.118-.253c.431 0 .808.076 1.13.228.325.148.6.366.825.654.228.283.408.626.54 1.028.13.402.221.857.272 1.365v.584a5.971 5.971 0 01-.273 1.358 3.214 3.214 0 01-.54 1.029c-.224.283-.499.501-.825.653-.325.149-.706.223-1.142.223-.402 0-.77-.087-1.105-.261a2.592 2.592 0 01-.856-.73 3.553 3.553 0 01-.553-1.104 4.86 4.86 0 01-.19-1.39zm1.18-.134v.134c0 .343.034.664.102.965.072.3.182.565.33.793.148.229.337.408.565.54.229.127.501.19.819.19.39 0 .709-.082.958-.247.254-.166.457-.383.61-.654.152-.271.27-.565.355-.883v-1.529a3.393 3.393 0 00-.222-.673 2.068 2.068 0 00-.368-.584 1.592 1.592 0 00-.552-.413 1.798 1.798 0 00-.768-.152 1.63 1.63 0 00-.832.203 1.616 1.616 0 00-.565.546 2.517 2.517 0 00-.33.8 4.37 4.37 0 00-.102.964zM74.175 182.143v.965h-3.098v-.965h3.098zM79.323 184.733a.991.991 0 00-.115-.47c-.072-.148-.222-.281-.45-.4-.225-.122-.563-.228-1.016-.317a8.146 8.146 0 01-1.035-.286 3.123 3.123 0 01-.78-.4 1.668 1.668 0 01-.49-.552 1.539 1.539 0 01-.17-.743c0-.27.059-.526.177-.768a2.06 2.06 0 01.514-.641c.225-.186.493-.332.806-.438a3.254 3.254 0 011.048-.158c.55 0 1.02.097 1.409.292.39.194.688.454.895.78.207.322.311.68.311 1.073h-1.174c0-.19-.057-.374-.172-.552a1.27 1.27 0 00-.489-.451c-.211-.118-.471-.178-.78-.178-.326 0-.59.051-.794.153a1.018 1.018 0 00-.438.374.945.945 0 00-.07.825.745.745 0 00.242.273c.114.081.275.157.482.229.208.072.472.144.794.216.562.127 1.026.279 1.39.457.364.178.634.395.812.654.178.258.267.571.267.939a1.829 1.829 0 01-.73 1.473 2.706 2.706 0 01-.838.419 3.755 3.755 0 01-1.085.146c-.606 0-1.118-.108-1.537-.324-.419-.216-.736-.495-.952-.838a2.006 2.006 0 01-.324-1.085h1.181c.017.321.11.577.28.768.169.186.376.319.621.4.246.076.49.114.73.114.322 0 .59-.043.807-.127.22-.085.387-.201.501-.349a.81.81 0 00.172-.508zM84.89 186.682c-.479 0-.912-.081-1.302-.242a2.949 2.949 0 01-.996-.691 3.088 3.088 0 01-.635-1.054 3.866 3.866 0 01-.222-1.333v-.267c0-.558.082-1.056.247-1.491.165-.441.39-.813.673-1.118a2.9 2.9 0 01.965-.692 2.78 2.78 0 011.117-.234c.49 0 .914.084 1.27.253.36.17.653.407.882.711.228.301.398.656.508 1.067.11.406.165.85.165 1.333v.527h-5.13v-.959h3.956v-.089a2.927 2.927 0 00-.191-.888 1.595 1.595 0 00-.508-.711c-.232-.186-.55-.28-.952-.28a1.602 1.602 0 00-1.314.667c-.16.22-.285.489-.374.806a4.085 4.085 0 00-.134 1.098v.267c0 .326.045.632.134.92.093.284.226.533.4.749.177.216.39.385.64.508.255.123.542.184.864.184.415 0 .766-.084 1.054-.254.287-.169.54-.395.755-.679l.71.565a3.29 3.29 0 01-.564.641 2.7 2.7 0 01-.844.495c-.33.127-.722.191-1.175.191zM90.107 180.766v5.789h-1.174v-6.868h1.142l.032 1.079zm2.146-1.118l-.007 1.092a1.687 1.687 0 00-.279-.038 3.11 3.11 0 00-.292-.013c-.27 0-.51.043-.717.127a1.497 1.497 0 00-.527.356 1.703 1.703 0 00-.343.546c-.08.207-.133.436-.159.685l-.33.191c0-.415.04-.804.121-1.168.085-.364.214-.686.387-.965.174-.284.394-.504.66-.66.271-.161.593-.241.965-.241.085 0 .182.01.292.031.11.017.186.036.229.057zM95.54 185.495l1.88-5.808h1.2l-2.47 6.868h-.787l.178-1.06zm-1.567-5.808l1.936 5.839.133 1.029h-.787l-2.488-6.868h1.206zM102.51 186.682c-.478 0-.911-.081-1.301-.242a2.946 2.946 0 01-.996-.691 3.084 3.084 0 01-.635-1.054 3.866 3.866 0 01-.222-1.333v-.267c0-.558.082-1.056.247-1.491.165-.441.39-.813.673-1.118a2.9 2.9 0 01.965-.692 2.78 2.78 0 011.117-.234c.491 0 .914.084 1.27.253.359.17.653.407.882.711.229.301.398.656.508 1.067.11.406.165.85.165 1.333v.527h-5.129v-.959h3.955v-.089a2.928 2.928 0 00-.191-.888 1.595 1.595 0 00-.508-.711c-.232-.186-.55-.28-.952-.28a1.602 1.602 0 00-1.314.667c-.161.22-.285.489-.374.806a4.08 4.08 0 00-.134 1.098v.267c0 .326.045.632.134.92.093.284.226.533.4.749.177.216.391.385.641.508.254.123.541.184.863.184.415 0 .766-.084 1.054-.254.287-.169.539-.395.755-.679l.711.565a3.27 3.27 0 01-.565.641c-.228.203-.51.368-.844.495-.33.127-.722.191-1.175.191zM107.728 180.766v5.789h-1.174v-6.868h1.143l.031 1.079zm2.146-1.118l-.007 1.092a1.678 1.678 0 00-.279-.038 3.117 3.117 0 00-.292-.013c-.271 0-.51.043-.717.127a1.502 1.502 0 00-.527.356 1.707 1.707 0 00-.343.546c-.08.207-.133.436-.158.685l-.331.191c0-.415.041-.804.121-1.168.085-.364.214-.686.387-.965.174-.284.394-.504.66-.66.271-.161.593-.241.965-.241.085 0 .182.01.292.031a.89.89 0 01.229.057zM110.191 185.933c0-.199.062-.366.184-.502.127-.139.309-.209.546-.209.237 0 .417.07.54.209.127.136.19.303.19.502a.699.699 0 01-.19.495c-.123.135-.303.203-.54.203-.237 0-.419-.068-.546-.203a.716.716 0 01-.184-.495zM116.475 179.687v.901h-3.713v-.901h3.713zm-2.456-1.67h1.174v6.837c0 .232.036.408.108.526a.514.514 0 00.279.235c.115.038.237.057.368.057.098 0 .199-.008.305-.025.11-.021.193-.038.248-.051l.006.959a2.798 2.798 0 01-.368.082c-.148.03-.328.045-.54.045a1.82 1.82 0 01-.793-.172 1.275 1.275 0 01-.578-.571c-.139-.271-.209-.635-.209-1.092v-6.83zM119.027 181.007v8.188h-1.181v-9.508h1.08l.101 1.32zm4.628 2.056v.134c0 .499-.06.963-.178 1.39a3.417 3.417 0 01-.521 1.104 2.351 2.351 0 01-.831.73 2.4 2.4 0 01-1.136.261c-.436 0-.821-.072-1.156-.216a2.277 2.277 0 01-.85-.629 3.212 3.212 0 01-.559-.99 5.767 5.767 0 01-.279-1.301v-.711a6.02 6.02 0 01.285-1.365 3.39 3.39 0 01.553-1.028c.232-.288.514-.506.844-.654.33-.152.711-.228 1.142-.228.432 0 .815.084 1.149.253.335.166.616.402.845.711.228.309.4.68.514 1.111.118.428.178.904.178 1.428zm-1.181.134v-.134c0-.342-.036-.664-.108-.964a2.44 2.44 0 00-.336-.8 1.606 1.606 0 00-.572-.546 1.627 1.627 0 00-.831-.203c-.297 0-.555.051-.775.152-.216.102-.4.239-.552.413a2.185 2.185 0 00-.374.584c-.094.216-.163.44-.21.673v1.644c.085.296.203.575.356.838.152.258.355.467.609.628.254.157.573.235.958.235.318 0 .591-.066.819-.197.233-.135.423-.319.572-.552.152-.233.264-.5.336-.8.072-.305.108-.628.108-.971zM126.428 176.805v9.75h-1.18v-9.75h1.18z" fill="#393D45"></path><g clip-path="url(#cms-center-left-1_svg__clip0_4607_17824)"><g clip-path="url(#cms-center-left-1_svg__clip1_4607_17824)" fill="#B9BDC5"><path d="M166.35 178.15c-.2-.2-.51-.2-.71 0l-10.5 10.5a.5.5 0 00-.14.35v2.5c0 .28.22.5.5.5h2.5c.13 0 .26-.05.35-.15l10.5-10.5c.2-.2.2-.51 0-.71l-2.5-2.49zM172.85 176.65l-2.5-2.5c-.2-.2-.51-.2-.71 0l-1.5 1.5c-.2.2-.2.51 0 .71l2.5 2.5c.1.09.23.14.36.14.13 0 .26-.05.35-.15l1.5-1.5c.2-.19.2-.51 0-.7z"></path></g></g><g clip-path="url(#cms-center-left-1_svg__clip2_4607_17824)" fill="#B9BDC5"><path d="M206.5 175h-3.29l-.85-.85c-.1-.1-.23-.15-.36-.15h-4a.47.47 0 00-.35.15l-.86.85h-3.29c-.28 0-.5.22-.5.5v2c0 .28.22.5.5.5h13c.28 0 .5-.22.5-.5v-2c0-.28-.22-.5-.5-.5zM205.5 180h-11c-.28 0-.5.22-.5.5v11c0 .28.22.5.5.5h11c.28 0 .5-.22.5-.5v-11c0-.28-.22-.5-.5-.5z"></path></g><defs><clipPath id="cms-center-left-1_svg__clip0_4607_17824"><path fill="#fff" transform="translate(155 174)" d="M0 0h18v18H0z"></path></clipPath><clipPath id="cms-center-left-1_svg__clip1_4607_17824"><path fill="#fff" transform="translate(155 174)" d="M0 0h18v18H0z"></path></clipPath><clipPath id="cms-center-left-1_svg__clip2_4607_17824"><path fill="#fff" transform="translate(191 174)" d="M0 0h18v18H0z"></path></clipPath></defs></svg>