<svg width="366" height="227" fill="none" xmlns="http://www.w3.org/2000/svg" data-v-6380b091=""><path fill="#fff" d="M0 0h366v227H0z"></path><path d="M27.64 29.82L29.907 21h1.188l-.133 2.273-2.422 9.102h-1.234l.336-2.555zM25.946 21l1.836 8.75.164 2.625h-1.312L24 21h1.945zm7.72 8.727L35.476 21h1.953l-2.633 11.375h-1.313l.18-2.648zM31.554 21l2.242 8.844.328 2.531h-1.234l-2.383-9.102L30.383 21h1.172zM42.172 32.531c-.625 0-1.19-.101-1.695-.304a3.744 3.744 0 01-1.282-.868 3.845 3.845 0 01-.804-1.304 4.569 4.569 0 01-.282-1.617v-.313c0-.662.097-1.26.29-1.797a4.08 4.08 0 01.804-1.375c.344-.385.75-.68 1.219-.883a3.79 3.79 0 011.523-.304c.605 0 1.133.101 1.586.304.453.203.828.49 1.125.86.302.364.526.8.672 1.304.151.506.227 1.063.227 1.672v.805h-6.532v-1.352h4.672v-.148a2.644 2.644 0 00-.203-.953 1.62 1.62 0 00-.554-.719c-.25-.182-.584-.273-1-.273-.313 0-.592.067-.836.203-.24.13-.44.32-.602.57a3 3 0 00-.375.906 5.095 5.095 0 00-.125 1.18v.313c0 .37.05.713.148 1.03.105.313.256.587.454.821.198.234.437.42.718.555.282.13.602.195.961.195.453 0 .857-.091 1.211-.273.354-.183.662-.44.922-.774l.992.961c-.182.266-.419.521-.71.766-.292.24-.65.435-1.071.586-.417.15-.901.226-1.453.226zM47.031 20.375h1.883V30.57l-.18 1.805h-1.703v-12zm7.399 7.695v.164c0 .625-.07 1.2-.211 1.727a3.98 3.98 0 01-.625 1.36c-.276.385-.62.684-1.032.898-.406.208-.877.312-1.414.312-.526 0-.984-.099-1.375-.297a2.734 2.734 0 01-.984-.843c-.26-.365-.471-.8-.633-1.305a8.622 8.622 0 01-.343-1.672v-.523a8.461 8.461 0 01.343-1.672c.162-.506.373-.94.633-1.305.266-.37.591-.654.977-.852.39-.197.846-.296 1.367-.296.541 0 1.018.104 1.43.312.416.209.762.505 1.039.89.276.381.481.834.617 1.36.14.526.21 1.107.21 1.742zm-1.883.164v-.164c0-.38-.031-.737-.094-1.07a2.81 2.81 0 00-.312-.89 1.566 1.566 0 00-.578-.602c-.24-.151-.54-.227-.899-.227-.333 0-.62.058-.86.172-.239.115-.44.271-.6.469a2.323 2.323 0 00-.384.687c-.088.26-.148.542-.18.844v1.414c.047.39.146.75.297 1.078.157.323.376.584.657.782.281.192.643.289 1.086.289.349 0 .643-.07.883-.211.24-.14.43-.336.57-.586.146-.256.25-.552.312-.89.068-.34.102-.704.102-1.095zM60.766 30.086a.943.943 0 00-.141-.508c-.094-.156-.273-.297-.54-.422-.26-.125-.645-.24-1.155-.343a9.969 9.969 0 01-1.235-.352c-.37-.14-.687-.31-.953-.508a2.137 2.137 0 01-.617-.703 1.947 1.947 0 01-.219-.938c0-.343.076-.669.227-.976.15-.307.367-.578.648-.813.282-.234.623-.419 1.024-.554a4.28 4.28 0 011.36-.203c.707 0 1.314.12 1.82.359.51.234.9.555 1.171.96.271.402.407.855.407 1.36H60.68c0-.224-.058-.432-.172-.625a1.196 1.196 0 00-.5-.476c-.224-.125-.505-.188-.844-.188-.323 0-.591.052-.805.157-.208.099-.364.229-.468.39a.998.998 0 00-.149.531c0 .141.026.269.078.383.058.11.151.211.282.305.13.088.307.172.53.25.23.078.516.154.86.226.646.136 1.2.31 1.664.524.469.208.828.479 1.078.812.25.328.375.745.375 1.25 0 .375-.08.72-.242 1.032a2.34 2.34 0 01-.687.804 3.453 3.453 0 01-1.086.524 4.89 4.89 0 01-1.407.187c-.765 0-1.414-.135-1.945-.406-.531-.276-.935-.628-1.21-1.055a2.497 2.497 0 01-.407-1.343h1.82c.021.349.117.627.29.835.176.204.395.352.656.446.265.088.539.133.82.133.339 0 .622-.045.852-.133.229-.094.403-.219.523-.375a.895.895 0 00.18-.547zM66.273 23.922v8.453h-1.89v-8.453h1.89zm-2.015-2.219c0-.286.094-.523.281-.71.193-.194.458-.29.797-.29.333 0 .596.096.789.29a.95.95 0 01.29.71.94.94 0 01-.29.703c-.193.188-.456.282-.79.282-.338 0-.603-.094-.796-.282a.954.954 0 01-.281-.703zM72.21 23.922v1.375h-4.765v-1.375h4.766zm-3.39-2.07h1.883v8.187c0 .26.037.461.11.602a.585.585 0 00.32.273c.135.047.294.07.476.07.13 0 .256-.007.375-.023.12-.016.217-.031.29-.047l.007 1.438a4.827 4.827 0 01-.547.125 4.023 4.023 0 01-.703.054c-.432 0-.815-.075-1.148-.226a1.691 1.691 0 01-.781-.758c-.188-.35-.282-.813-.282-1.39v-8.305zM77.39 32.531c-.624 0-1.19-.101-1.695-.304a3.743 3.743 0 01-1.28-.868 3.844 3.844 0 01-.806-1.304 4.569 4.569 0 01-.28-1.617v-.313c0-.662.096-1.26.288-1.797.193-.536.461-.995.805-1.375.344-.385.75-.68 1.219-.883a3.79 3.79 0 011.523-.304c.604 0 1.133.101 1.586.304.453.203.828.49 1.125.86.302.364.526.8.672 1.304.15.506.226 1.063.226 1.672v.805h-6.53v-1.352h4.671v-.148a2.646 2.646 0 00-.203-.953 1.62 1.62 0 00-.555-.719c-.25-.182-.583-.273-1-.273-.312 0-.59.067-.836.203-.24.13-.44.32-.601.57a3 3 0 00-.375.906 5.09 5.09 0 00-.125 1.18v.313c0 .37.05.713.148 1.03.104.313.255.587.453.821.198.234.438.42.72.555.28.13.6.195.96.195.453 0 .857-.091 1.21-.273.355-.183.662-.44.923-.774l.992.961c-.182.266-.42.521-.71.766-.293.24-.65.435-1.071.586-.417.15-.901.226-1.453.226zM92.398 29.445c0-.234-.036-.442-.109-.625a1.22 1.22 0 00-.367-.5c-.177-.15-.427-.297-.75-.437a9.958 9.958 0 00-1.219-.445 13.532 13.532 0 01-1.5-.555 5.71 5.71 0 01-1.187-.719 3.076 3.076 0 01-.79-.945 2.647 2.647 0 01-.28-1.242c0-.464.096-.886.288-1.266.198-.38.477-.708.836-.984a4 4 0 011.29-.649 5.43 5.43 0 011.64-.234c.844 0 1.57.156 2.18.468.614.313 1.086.732 1.414 1.258.333.526.5 1.107.5 1.742h-1.946c0-.375-.08-.705-.242-.992a1.642 1.642 0 00-.719-.687c-.317-.167-.72-.25-1.21-.25-.464 0-.85.07-1.157.21-.307.141-.536.331-.687.571-.151.24-.227.51-.227.813 0 .213.05.408.149.585.099.172.25.334.453.485.203.146.458.284.765.414.308.13.67.255 1.086.375.63.187 1.18.396 1.649.625.469.224.86.48 1.172.766.312.286.547.611.703.976.156.36.234.768.234 1.227 0 .479-.096.911-.289 1.297-.193.38-.469.705-.828.976a3.96 3.96 0 01-1.281.617c-.495.14-1.047.211-1.656.211a6.084 6.084 0 01-1.618-.218 4.769 4.769 0 01-1.437-.665 3.43 3.43 0 01-1.031-1.125c-.256-.453-.383-.981-.383-1.585h1.96c0 .37.063.684.188.945.13.26.31.474.54.64.228.162.494.282.796.36.307.078.635.117.984.117.459 0 .842-.065 1.149-.195.312-.13.547-.313.703-.547a1.43 1.43 0 00.234-.813zM97.93 23.922v8.453h-1.89v-8.453h1.89zm-2.016-2.219c0-.286.094-.523.281-.71.193-.194.459-.29.797-.29.334 0 .596.096.79.29a.95.95 0 01.288.71.94.94 0 01-.289.703c-.193.188-.456.282-.789.282-.338 0-.604-.094-.797-.282a.954.954 0 01-.28-.703zM103.867 23.922v1.375h-4.765v-1.375h4.765zm-3.39-2.07h1.882v8.187c0 .26.037.461.11.602a.585.585 0 00.32.273c.135.047.294.07.477.07.13 0 .255-.007.375-.023.119-.016.216-.031.289-.047l.008 1.438a4.888 4.888 0 01-.547.125 4.025 4.025 0 01-.703.054c-.433 0-.816-.075-1.149-.226a1.69 1.69 0 01-.781-.758c-.188-.35-.281-.813-.281-1.39v-8.305zM109.047 32.531c-.625 0-1.19-.101-1.695-.304a3.745 3.745 0 01-1.282-.868 3.834 3.834 0 01-.804-1.304 4.558 4.558 0 01-.282-1.617v-.313c0-.662.097-1.26.289-1.797a4.08 4.08 0 01.805-1.375c.344-.385.75-.68 1.219-.883a3.789 3.789 0 011.523-.304c.604 0 1.133.101 1.586.304.453.203.828.49 1.125.86.302.364.526.8.672 1.304.151.506.227 1.063.227 1.672v.805h-6.532v-1.352h4.672v-.148a2.635 2.635 0 00-.203-.953 1.622 1.622 0 00-.555-.719c-.25-.182-.583-.273-1-.273-.312 0-.591.067-.835.203-.24.13-.441.32-.602.57-.161.25-.286.552-.375.906a5.111 5.111 0 00-.125 1.18v.313c0 .37.049.713.148 1.03.105.313.256.587.454.821.197.234.437.42.718.555.282.13.602.195.961.195.453 0 .857-.091 1.211-.273.354-.183.662-.44.922-.774l.992.961c-.182.266-.419.521-.711.766-.291.24-.648.435-1.07.586-.417.15-.901.226-1.453.226zM115.781 25.64v6.735h-1.883v-8.453h1.774l.109 1.719zm-.304 2.196l-.641-.008c0-.583.073-1.122.219-1.617.146-.495.359-.924.64-1.29.282-.369.631-.653 1.047-.85.422-.204.909-.305 1.461-.305.386 0 .737.057 1.055.172.323.109.601.283.836.523.239.24.422.547.547.922.13.375.195.828.195 1.36v5.632h-1.883v-5.469c0-.411-.062-.734-.187-.968a1.042 1.042 0 00-.524-.5 1.893 1.893 0 00-.804-.157c-.355 0-.657.068-.907.203a1.7 1.7 0 00-.601.555 2.47 2.47 0 00-.344.813 4.25 4.25 0 00-.109.984zm5.242-.5l-.883.195c0-.51.07-.992.211-1.445.146-.458.357-.86.633-1.203a2.963 2.963 0 011.039-.82c.411-.198.883-.297 1.414-.297.432 0 .818.06 1.156.18.344.114.635.296.875.546.24.25.422.576.547.977.125.396.187.875.187 1.437v5.469h-1.89v-5.477c0-.427-.063-.757-.188-.992a.968.968 0 00-.515-.484 2.081 2.081 0 00-.805-.14c-.292 0-.549.054-.773.163a1.533 1.533 0 00-.555.446 1.983 1.983 0 00-.344.648c-.073.245-.109.51-.109.797zM132.602 30.68v-4.032c0-.302-.055-.562-.164-.78a1.157 1.157 0 00-.5-.509c-.219-.12-.495-.18-.829-.18-.307 0-.573.053-.797.157a1.293 1.293 0 00-.523.422 1.017 1.017 0 00-.187.601h-1.875c0-.333.08-.656.242-.968.161-.313.396-.591.703-.836a3.505 3.505 0 011.101-.578c.428-.141.907-.211 1.438-.211.635 0 1.198.106 1.687.32.495.213.883.536 1.164.969.287.427.43.963.43 1.61v3.757c0 .385.026.732.078 1.039.058.302.138.565.242.789v.125h-1.929a3.307 3.307 0 01-.211-.773 6.297 6.297 0 01-.07-.922zm.273-3.446l.016 1.164h-1.352c-.349 0-.656.034-.922.102a1.897 1.897 0 00-.664.281 1.216 1.216 0 00-.531 1.055c0 .224.052.43.156.617.104.182.255.326.453.43.203.104.448.156.735.156a2.07 2.07 0 001.007-.234c.292-.162.521-.357.688-.586.167-.235.255-.456.266-.664l.609.836a2.878 2.878 0 01-.32.687c-.151.245-.349.48-.594.703a2.96 2.96 0 01-.867.54 2.96 2.96 0 01-1.157.21c-.552 0-1.044-.11-1.476-.328a2.63 2.63 0 01-1.016-.898 2.328 2.328 0 01-.367-1.29c0-.447.083-.843.25-1.187a2.33 2.33 0 01.75-.875c.333-.234.74-.411 1.219-.531a6.517 6.517 0 011.64-.188h1.477zM138.352 25.547v10.078h-1.883V23.922h1.734l.149 1.625zm5.507 2.523v.164c0 .615-.073 1.185-.218 1.711-.141.521-.352.977-.633 1.367a2.91 2.91 0 01-1.024.899c-.406.214-.875.32-1.406.32-.526 0-.987-.096-1.383-.289a2.84 2.84 0 01-.992-.836 4.542 4.542 0 01-.656-1.265 8.107 8.107 0 01-.344-1.61v-.633c.068-.62.182-1.182.344-1.687.167-.505.385-.94.656-1.305.271-.364.602-.646.992-.843.391-.198.847-.297 1.367-.297.532 0 1.003.104 1.415.312.411.203.757.495 1.039.875.281.375.492.828.632 1.36.141.526.211 1.111.211 1.757zm-1.882.164v-.164c0-.39-.037-.752-.11-1.086a2.82 2.82 0 00-.344-.89 1.677 1.677 0 00-.601-.594c-.24-.146-.529-.219-.867-.219-.334 0-.62.058-.86.172-.239.11-.44.263-.601.461-.162.198-.287.43-.375.695a4.17 4.17 0 00-.188.852v1.516c.063.375.17.718.321 1.03.151.313.364.563.64.75.281.183.641.274 1.078.274.339 0 .628-.073.868-.218a1.71 1.71 0 00.585-.602c.157-.26.271-.56.344-.898.073-.339.11-.698.11-1.079z" fill="#393D45"></path><g clip-path="url(#cms-center-right-1_svg__clip0_4607_18023)"><path stroke="#E6E8EC" d="M0 56.5h474.479"></path></g><path d="M29.626 92.228h-4.314v3.527h5.011v1.073H24v-9.953h6.255v1.08h-4.942v3.2h4.313v1.073zM32.955 89.432l.041.93c.565-.712 1.303-1.067 2.215-1.067 1.563 0 2.352.882 2.365 2.645v4.888h-1.264v-4.894c-.005-.534-.128-.928-.37-1.183-.237-.255-.608-.383-1.114-.383-.41 0-.77.11-1.08.328-.31.219-.551.506-.725.862v5.27H31.76v-7.396h1.196zM44.05 96.828c-.073-.146-.132-.406-.178-.78-.588.611-1.29.917-2.105.917-.73 0-1.329-.205-1.798-.615a2.016 2.016 0 01-.697-1.573c0-.77.291-1.367.875-1.79.587-.43 1.412-.643 2.474-.643h1.23v-.581c0-.442-.132-.793-.396-1.053-.264-.264-.654-.396-1.169-.396-.451 0-.83.113-1.135.341-.305.228-.458.504-.458.827h-1.271c0-.369.13-.724.39-1.066.264-.346.62-.62 1.066-.82.451-.2.946-.301 1.483-.301.853 0 1.52.214 2.003.642.483.424.734 1.01.752 1.757V95.1c0 .679.087 1.219.26 1.62v.11H44.05zm-2.099-.964c.397 0 .773-.102 1.128-.307a1.86 1.86 0 00.773-.8v-1.518h-.992c-1.55 0-2.324.454-2.324 1.36 0 .397.132.707.397.93.264.224.603.335 1.018.335zM53.36 93.212c0 1.13-.26 2.04-.779 2.727-.52.684-1.217 1.026-2.092 1.026-.934 0-1.656-.33-2.167-.991l-.061.854h-1.162v-10.5h1.264v3.917c.51-.633 1.215-.95 2.113-.95.897 0 1.602.34 2.112 1.019.515.679.772 1.608.772 2.789v.109zm-1.264-.144c0-.861-.167-1.526-.5-1.996-.332-.47-.81-.704-1.435-.704-.834 0-1.433.388-1.798 1.162v3.2c.388.774.992 1.162 1.812 1.162.606 0 1.078-.235 1.415-.704.337-.47.506-1.176.506-2.12zM56.334 96.828h-1.265v-10.5h1.265v10.5zM61.434 96.965c-1.003 0-1.819-.328-2.448-.984-.629-.661-.943-1.543-.943-2.646v-.232c0-.734.139-1.388.417-1.962a3.283 3.283 0 011.176-1.354 2.958 2.958 0 011.64-.492c.962 0 1.71.317 2.243.95.533.634.8 1.54.8 2.72v.527h-5.011c.018.73.23 1.32.635 1.77.41.447.93.67 1.559.67.447 0 .825-.09 1.135-.273a2.85 2.85 0 00.813-.724l.773.601c-.62.953-1.55 1.429-2.79 1.429zm-.158-6.631c-.51 0-.938.187-1.285.56-.346.37-.56.89-.642 1.56h3.705v-.097c-.037-.642-.21-1.139-.52-1.49-.31-.355-.729-.533-1.258-.533zM72.392 92.392c-1.126-.324-1.946-.72-2.461-1.19a2.294 2.294 0 01-.766-1.75c0-.784.312-1.43.937-1.941.629-.515 1.444-.773 2.447-.773.683 0 1.292.132 1.825.397.538.264.953.629 1.244 1.093.296.465.445.974.445 1.525h-1.32c0-.602-.191-1.073-.574-1.415-.383-.346-.923-.52-1.62-.52-.647 0-1.153.144-1.518.431-.36.283-.54.677-.54 1.183 0 .405.171.75.513 1.032.346.278.932.533 1.757.766.83.232 1.476.49 1.941.772.47.278.816.604 1.04.978.227.373.341.813.341 1.319 0 .806-.314 1.454-.943 1.941-.63.483-1.47.725-2.523.725-.683 0-1.321-.13-1.914-.39-.592-.264-1.05-.624-1.374-1.08a2.64 2.64 0 01-.478-1.552h1.319c0 .602.221 1.078.663 1.43.447.345 1.041.519 1.784.519.693 0 1.224-.142 1.593-.424.37-.283.554-.668.554-1.156 0-.487-.171-.863-.513-1.127-.342-.27-.962-.534-1.86-.793zM78.947 96.828h-1.264v-7.396h1.264v7.396zM77.58 87.47c0-.205.062-.379.185-.52.127-.141.314-.212.56-.212.246 0 .433.07.56.212a.747.747 0 01.192.52.722.722 0 01-.191.512c-.128.137-.315.206-.56.206-.247 0-.434-.069-.561-.206a.738.738 0 01-.185-.512zM82.693 87.64v1.792h1.381v.977h-1.38v4.587c0 .296.06.52.184.67.123.146.333.219.629.219.146 0 .346-.028.601-.082v1.025a3.664 3.664 0 01-.97.137c-.565 0-.992-.171-1.279-.513-.287-.342-.43-.827-.43-1.456V90.41h-1.347v-.977h1.347V87.64h1.264zM88.627 96.965c-1.003 0-1.818-.328-2.447-.984-.63-.661-.944-1.543-.944-2.646v-.232c0-.734.14-1.388.417-1.962a3.284 3.284 0 011.176-1.354 2.958 2.958 0 011.64-.492c.962 0 1.71.317 2.243.95.533.634.8 1.54.8 2.72v.527H86.5c.018.73.23 1.32.636 1.77.41.447.93.67 1.558.67.447 0 .825-.09 1.135-.273.31-.182.581-.424.814-.724l.772.601c-.62.953-1.55 1.429-2.789 1.429zm-.157-6.631c-.51 0-.94.187-1.285.56-.347.37-.561.89-.643 1.56h3.705v-.097c-.036-.642-.21-1.139-.52-1.49-.31-.355-.729-.533-1.257-.533zM94.17 89.432l.035.82c.542-.638 1.274-.957 2.194-.957 1.035 0 1.739.396 2.113 1.19.246-.356.565-.643.957-.862.396-.219.863-.328 1.401-.328 1.623 0 2.447.859 2.475 2.577v4.956h-1.265v-4.88c0-.53-.121-.924-.362-1.183-.242-.265-.647-.397-1.217-.397-.469 0-.86.141-1.169.424-.31.278-.49.654-.54 1.128v4.908H97.52v-4.847c0-1.075-.526-1.613-1.579-1.613-.829 0-1.396.353-1.702 1.06v5.4h-1.264v-7.396h1.196zM109.825 96.828c-.073-.146-.132-.406-.178-.78-.587.611-1.289.917-2.105.917-.729 0-1.328-.205-1.798-.615a2.015 2.015 0 01-.697-1.573c0-.77.292-1.367.875-1.79.588-.43 1.413-.643 2.474-.643h1.231v-.581c0-.442-.132-.793-.397-1.053-.264-.264-.654-.396-1.168-.396-.452 0-.83.113-1.135.341-.306.228-.458.504-.458.827h-1.272c0-.369.13-.724.39-1.066.264-.346.62-.62 1.066-.82.451-.2.946-.301 1.484-.301.852 0 1.52.214 2.003.642.483.424.733 1.01.752 1.757V95.1c0 .679.086 1.219.259 1.62v.11h-1.326zm-2.098-.964a2.22 2.22 0 001.127-.307c.356-.205.613-.472.773-.8v-1.518h-.991c-1.55 0-2.324.454-2.324 1.36 0 .397.132.707.396.93.264.224.604.335 1.019.335zM119.122 93.212c0 1.126-.257 2.032-.772 2.72-.515.689-1.213 1.033-2.092 1.033-.898 0-1.604-.285-2.119-.855v3.562h-1.265v-10.24h1.155l.062.82c.515-.638 1.23-.957 2.146-.957.889 0 1.591.335 2.106 1.005.519.67.779 1.602.779 2.796v.116zm-1.265-.144c0-.834-.177-1.492-.533-1.975-.355-.483-.843-.725-1.463-.725-.765 0-1.34.34-1.722 1.019v3.534c.378.674.957 1.012 1.736 1.012.606 0 1.087-.24 1.442-.718.36-.483.54-1.199.54-2.147z" fill="#393D45"></path><g clip-path="url(#cms-center-right-1_svg__clip1_4607_18023)"><path d="M135.122 87a5.996 5.996 0 00-5.543 3.704 6.005 6.005 0 001.3 6.539 6.005 6.005 0 006.539 1.3A5.996 5.996 0 00141.122 93a6 6 0 00-6-6zm1 6v4h-2v-4h2zm-2-2v-2h2v2h-2z" fill="#B9BDC5"></path></g><rect x="302" y="81" width="40" height="24" rx="12" fill="#1062FE"></rect><rect x="321" y="84" width="18" height="18" rx="9" fill="#fff"></rect><g clip-path="url(#cms-center-right-1_svg__clip2_4607_18023)"><path d="M334.85 89.85l-.7-.7a.506.506 0 00-.547-.11.495.495 0 00-.163.11L328 94.59l-1.44-1.44a.506.506 0 00-.547-.11.495.495 0 00-.163.11l-.7.7a.491.491 0 00-.148.355.491.491 0 00.148.355l2.29 2.29a.476.476 0 00.35.15h.42a.469.469 0 00.35-.15l6.29-6.29a.491.491 0 00.148-.355.491.491 0 00-.148-.355z" fill="#1062FE"></path></g><rect x="24" y="121" width="150.813" height="46" rx="3" fill="#1062FE"></rect><path d="M48.481 146.56c-.385.503-.92.884-1.604 1.142-.683.259-1.46.389-2.329.389-.893 0-1.684-.203-2.373-.608a4.08 4.08 0 01-1.596-1.736c-.371-.757-.564-1.638-.579-2.644v-.835c0-1.612.386-2.869 1.157-3.772.772-.908 1.848-1.362 3.23-1.362 1.187 0 2.13.293 2.827.878.699.586 1.119 1.431 1.26 2.535h-1.816c-.205-1.285-.95-1.927-2.234-1.927-.83 0-1.463.301-1.897.901-.43.596-.652 1.472-.667 2.63v.82c0 1.152.242 2.048.725 2.688.489.635 1.165.952 2.03.952.947 0 1.62-.215 2.02-.644v-2.088h-2.197v-1.406h4.043v4.087zM53.835 148.091c-1.127 0-2.043-.354-2.746-1.062-.698-.713-1.047-1.661-1.047-2.842v-.22c0-.791.15-1.497.454-2.117a3.504 3.504 0 011.289-1.457 3.395 3.395 0 011.845-.52c1.08 0 1.912.344 2.498 1.033.59.688.886 1.662.886 2.922v.718h-5.178c.054.654.27 1.172.652 1.552.386.381.869.572 1.45.572.815 0 1.48-.33 1.992-.989l.96.915a3.217 3.217 0 01-1.275 1.106c-.527.259-1.12.389-1.78.389zm-.212-6.79c-.488 0-.884.171-1.186.513-.298.342-.489.818-.572 1.428h3.391v-.132c-.039-.596-.197-1.045-.476-1.348-.278-.307-.664-.461-1.157-.461zM60.054 140.019l.051.916c.586-.708 1.355-1.062 2.307-1.062 1.65 0 2.49.945 2.52 2.834v5.237h-1.78v-5.134c0-.503-.11-.874-.33-1.113-.215-.245-.569-.367-1.062-.367-.718 0-1.252.325-1.604.974v5.64h-1.78v-7.925h1.678zM70.242 148.091c-1.128 0-2.044-.354-2.747-1.062-.698-.713-1.047-1.661-1.047-2.842v-.22c0-.791.151-1.497.454-2.117a3.505 3.505 0 011.289-1.457 3.396 3.396 0 011.846-.52c1.079 0 1.911.344 2.497 1.033.591.688.886 1.662.886 2.922v.718h-5.178c.054.654.271 1.172.652 1.552.386.381.87.572 1.45.572.816 0 1.48-.33 1.992-.989l.96.915a3.218 3.218 0 01-1.275 1.106c-.527.259-1.12.389-1.78.389zm-.213-6.79c-.488 0-.883.171-1.186.513-.298.342-.489.818-.572 1.428h3.392v-.132c-.04-.596-.198-1.045-.477-1.348-.278-.307-.664-.461-1.157-.461zM78.957 141.645a4.412 4.412 0 00-.725-.058c-.815 0-1.364.312-1.647.937v5.42h-1.78v-7.925h1.699l.044.887c.43-.689 1.025-1.033 1.787-1.033.254 0 .464.034.63.102l-.008 1.67zM84.597 147.944c-.078-.151-.146-.398-.205-.74a2.77 2.77 0 01-2.08.887c-.796 0-1.445-.227-1.948-.682a2.178 2.178 0 01-.755-1.684c0-.845.313-1.492.938-1.941.63-.454 1.528-.681 2.695-.681h1.091v-.52c0-.41-.114-.738-.344-.982-.23-.249-.578-.373-1.047-.373-.405 0-.737.102-.996.307a.933.933 0 00-.388.769h-1.78c0-.434.144-.839.432-1.215.288-.381.679-.679 1.172-.894a4.153 4.153 0 011.662-.322c.928 0 1.668.234 2.22.703.551.464.835 1.118.85 1.963v3.574c0 .713.1 1.282.3 1.707v.124h-1.817zm-1.955-1.282c.351 0 .68-.085.988-.256.313-.171.547-.4.704-.688v-1.495h-.96c-.66 0-1.155.115-1.487.345-.332.229-.498.554-.498.974 0 .342.112.615.337.82.23.2.535.3.916.3zM90.207 138.093v1.926h1.4v1.319h-1.4v4.423c0 .303.06.523.176.66.122.131.337.197.645.197.205 0 .412-.024.622-.073v1.377a4.397 4.397 0 01-1.172.169c-1.367 0-2.05-.755-2.05-2.264v-4.489h-1.304v-1.319h1.304v-1.926h1.78zM96.462 148.091c-1.127 0-2.043-.354-2.746-1.062-.698-.713-1.047-1.661-1.047-2.842v-.22c0-.791.15-1.497.454-2.117a3.505 3.505 0 011.289-1.457 3.396 3.396 0 011.845-.52c1.08 0 1.912.344 2.498 1.033.59.688.886 1.662.886 2.922v.718h-5.178c.054.654.27 1.172.652 1.552.386.381.869.572 1.45.572.815 0 1.48-.33 1.992-.989l.96.915a3.218 3.218 0 01-1.275 1.106c-.527.259-1.12.389-1.78.389zm-.212-6.79c-.488 0-.884.171-1.186.513-.298.342-.489.818-.572 1.428h3.391v-.132c-.039-.596-.197-1.045-.476-1.348-.278-.307-.664-.461-1.157-.461zM110.51 145.198c0-.469-.166-.831-.498-1.084-.327-.254-.92-.511-1.78-.77-.859-.258-1.543-.546-2.05-.864-.972-.61-1.458-1.406-1.458-2.387 0-.86.349-1.568 1.047-2.124.704-.557 1.614-.835 2.732-.835.743 0 1.404.136 1.985.41a3.246 3.246 0 011.37 1.172c.332.503.498 1.062.498 1.677h-1.846c0-.557-.176-.991-.527-1.304-.347-.317-.845-.476-1.494-.476-.606 0-1.077.129-1.414.388-.332.259-.498.62-.498 1.084 0 .391.181.718.542.982.361.258.957.512 1.787.761.83.245 1.497.525 2 .843.503.312.871.673 1.106 1.084.234.405.351.881.351 1.428 0 .889-.342 1.597-1.025 2.124-.679.522-1.602.784-2.769.784a5.276 5.276 0 01-2.131-.425c-.645-.288-1.147-.684-1.509-1.187-.356-.503-.534-1.089-.534-1.758h1.853c0 .606.2 1.075.6 1.407.401.332.974.498 1.721.498.645 0 1.128-.13 1.451-.388.327-.264.49-.611.49-1.04zM115.71 147.944h-1.779v-7.925h1.779v7.925zm-1.889-9.983c0-.273.085-.5.256-.681.176-.181.425-.271.747-.271s.572.09.747.271a.938.938 0 01.264.681.928.928 0 01-.264.674c-.175.176-.425.264-.747.264s-.571-.088-.747-.264a.942.942 0 01-.256-.674zM119.885 138.093v1.926h1.399v1.319h-1.399v4.423c0 .303.059.523.176.66.122.131.337.197.645.197.205 0 .412-.024.622-.073v1.377a4.396 4.396 0 01-1.172.169c-1.367 0-2.051-.755-2.051-2.264v-4.489h-1.303v-1.319h1.303v-1.926h1.78zM126.14 148.091c-1.128 0-2.043-.354-2.746-1.062-.699-.713-1.048-1.661-1.048-2.842v-.22c0-.791.152-1.497.454-2.117a3.512 3.512 0 011.289-1.457 3.396 3.396 0 011.846-.52c1.079 0 1.912.344 2.498 1.033.59.688.886 1.662.886 2.922v.718h-5.178c.053.654.271 1.172.651 1.552.386.381.87.572 1.451.572.815 0 1.479-.33 1.992-.989l.959.915a3.216 3.216 0 01-1.274 1.106c-.527.259-1.121.389-1.78.389zm-.212-6.79c-.489 0-.884.171-1.187.513-.298.342-.488.818-.571 1.428h3.391v-.132c-.039-.596-.198-1.045-.476-1.348-.278-.307-.664-.461-1.157-.461zM132.38 140.019l.052.828c.556-.649 1.318-.974 2.285-.974 1.059 0 1.784.405 2.175 1.216.576-.811 1.387-1.216 2.432-1.216.874 0 1.523.242 1.948.725.43.483.649 1.196.659 2.139v5.207h-1.78v-5.156c0-.503-.109-.872-.329-1.106-.22-.234-.584-.352-1.092-.352-.405 0-.737.11-.996.33a1.703 1.703 0 00-.534.85l.007 5.434h-1.78v-5.215c-.024-.932-.5-1.399-1.428-1.399-.713 0-1.218.291-1.516.872v5.742h-1.78v-7.925h1.677zM148.494 147.944c-.078-.151-.147-.398-.205-.74a2.772 2.772 0 01-2.081.887c-.795 0-1.445-.227-1.948-.682a2.177 2.177 0 01-.754-1.684c0-.845.312-1.492.937-1.941.63-.454 1.529-.681 2.696-.681h1.091v-.52c0-.41-.115-.738-.344-.982-.23-.249-.579-.373-1.048-.373-.405 0-.737.102-.996.307a.932.932 0 00-.388.769h-1.78c0-.434.144-.839.432-1.215a2.878 2.878 0 011.172-.894 4.156 4.156 0 011.663-.322c.928 0 1.667.234 2.219.703.552.464.835 1.118.85 1.963v3.574c0 .713.1 1.282.3 1.707v.124h-1.816zm-1.956-1.282c.352 0 .681-.085.989-.256.312-.171.547-.4.703-.688v-1.495h-.959c-.66 0-1.155.115-1.487.345-.332.229-.498.554-.498.974 0 .342.112.615.337.82.229.2.534.3.915.3zM158.813 144.062c0 1.226-.278 2.205-.834 2.937-.557.728-1.304 1.092-2.242 1.092-.869 0-1.565-.286-2.087-.857v3.757h-1.78v-10.972h1.641l.073.806c.522-.635 1.233-.952 2.131-.952.967 0 1.724.361 2.271 1.084.552.718.827 1.716.827 2.995v.11zm-1.772-.154c0-.791-.159-1.418-.476-1.882-.313-.464-.762-.696-1.348-.696-.727 0-1.25.301-1.567.901v3.516c.322.615.85.923 1.582.923.566 0 1.008-.227 1.326-.681.322-.459.483-1.153.483-2.081z" fill="#fff"></path><rect x="190.813" y="121" width="142.757" height="46" rx="3" fill="#E3EFFC"></rect><path d="M208.667 143.982v3.962h-1.854V137.28h4.08c1.191 0 2.136.31 2.835.93.703.62 1.054 1.441 1.054 2.461 0 1.045-.344 1.858-1.032 2.439-.684.581-1.644.872-2.879.872h-2.204zm0-1.487h2.226c.659 0 1.162-.154 1.509-.462.347-.312.52-.761.52-1.347 0-.576-.176-1.035-.527-1.377-.352-.347-.835-.525-1.451-.535h-2.277v3.721zM220.385 141.645a4.407 4.407 0 00-.725-.058c-.815 0-1.365.312-1.648.937v5.42h-1.78v-7.925h1.7l.044.887c.429-.689 1.025-1.033 1.787-1.033.254 0 .464.034.63.102l-.008 1.67zM224.853 148.091c-1.128 0-2.043-.354-2.747-1.062-.698-.713-1.047-1.661-1.047-2.842v-.22c0-.791.151-1.497.454-2.117a3.505 3.505 0 011.289-1.457 3.396 3.396 0 011.846-.52c1.079 0 1.912.344 2.498 1.033.59.688.886 1.662.886 2.922v.718h-5.178c.053.654.271 1.172.651 1.552.386.381.87.572 1.451.572.815 0 1.479-.33 1.992-.989l.959.915a3.216 3.216 0 01-1.274 1.106c-.528.259-1.121.389-1.78.389zm-.212-6.79c-.489 0-.884.171-1.187.513-.298.342-.488.818-.571 1.428h3.391v-.132c-.039-.596-.198-1.045-.476-1.348-.278-.307-.664-.461-1.157-.461zM232.111 145.688l1.678-5.669h1.838l-2.747 7.925h-1.545l-2.769-7.925h1.846l1.699 5.669zM238.637 147.944h-1.78v-7.925h1.78v7.925zm-1.889-9.983c0-.273.085-.5.256-.681.176-.181.425-.271.747-.271s.571.09.747.271a.938.938 0 01.264.681.928.928 0 01-.264.674c-.176.176-.425.264-.747.264s-.571-.088-.747-.264a.942.942 0 01-.256-.674zM244.072 148.091c-1.128 0-2.044-.354-2.747-1.062-.698-.713-1.047-1.661-1.047-2.842v-.22c0-.791.151-1.497.454-2.117a3.505 3.505 0 011.289-1.457 3.396 3.396 0 011.846-.52c1.079 0 1.911.344 2.497 1.033.591.688.886 1.662.886 2.922v.718h-5.178c.054.654.271 1.172.652 1.552.386.381.869.572 1.45.572.816 0 1.48-.33 1.993-.989l.959.915a3.216 3.216 0 01-1.274 1.106c-.528.259-1.121.389-1.78.389zm-.213-6.79c-.488 0-.883.171-1.186.513-.298.342-.488.818-.571 1.428h3.391v-.132c-.039-.596-.198-1.045-.476-1.348-.279-.307-.664-.461-1.158-.461zM255.6 145.49l1.26-5.471h1.736l-2.161 7.925h-1.465l-1.699-5.442-1.67 5.442h-1.465l-2.168-7.925h1.736l1.282 5.413 1.626-5.413h1.34l1.648 5.471zM269.267 145.198c0-.469-.166-.831-.498-1.084-.327-.254-.92-.511-1.78-.77-.859-.258-1.543-.546-2.051-.864-.971-.61-1.457-1.406-1.457-2.387 0-.86.349-1.568 1.047-2.124.703-.557 1.614-.835 2.732-.835.742 0 1.404.136 1.985.41a3.246 3.246 0 011.37 1.172c.332.503.498 1.062.498 1.677h-1.846c0-.557-.176-.991-.527-1.304-.347-.317-.845-.476-1.494-.476-.606 0-1.077.129-1.414.388-.332.259-.498.62-.498 1.084 0 .391.181.718.542.982.361.258.957.512 1.787.761.83.245 1.497.525 2 .843.503.312.871.673 1.106 1.084.234.405.351.881.351 1.428 0 .889-.342 1.597-1.025 2.124-.679.522-1.602.784-2.769.784a5.276 5.276 0 01-2.131-.425c-.645-.288-1.148-.684-1.509-1.187-.356-.503-.535-1.089-.535-1.758h1.853c0 .606.201 1.075.601 1.407.4.332.974.498 1.721.498.645 0 1.128-.13 1.45-.388a1.27 1.27 0 00.491-1.04zM274.467 147.944h-1.779v-7.925h1.779v7.925zm-1.889-9.983c0-.273.085-.5.256-.681.176-.181.425-.271.747-.271s.571.09.747.271a.938.938 0 01.264.681.928.928 0 01-.264.674c-.176.176-.425.264-.747.264s-.571-.088-.747-.264a.942.942 0 01-.256-.674zM278.642 138.093v1.926h1.399v1.319h-1.399v4.423c0 .303.059.523.176.66.122.131.337.197.644.197.205 0 .413-.024.623-.073v1.377a4.396 4.396 0 01-1.172.169c-1.367 0-2.051-.755-2.051-2.264v-4.489h-1.303v-1.319h1.303v-1.926h1.78zM284.897 148.091c-1.128 0-2.043-.354-2.747-1.062-.698-.713-1.047-1.661-1.047-2.842v-.22c0-.791.151-1.497.454-2.117a3.505 3.505 0 011.289-1.457 3.396 3.396 0 011.846-.52c1.079 0 1.912.344 2.497 1.033.591.688.887 1.662.887 2.922v.718h-5.179c.054.654.271 1.172.652 1.552.386.381.869.572 1.451.572.815 0 1.479-.33 1.992-.989l.959.915a3.216 3.216 0 01-1.274 1.106c-.528.259-1.121.389-1.78.389zm-.212-6.79c-.489 0-.884.171-1.187.513-.298.342-.488.818-.571 1.428h3.391v-.132c-.039-.596-.198-1.045-.476-1.348-.279-.307-.664-.461-1.157-.461zM291.137 140.019l.051.828c.557-.649 1.319-.974 2.286-.974 1.059 0 1.784.405 2.175 1.216.576-.811 1.387-1.216 2.432-1.216.874 0 1.523.242 1.948.725.429.483.649 1.196.659 2.139v5.207h-1.78v-5.156c0-.503-.11-.872-.329-1.106-.22-.234-.584-.352-1.092-.352-.405 0-.737.11-.996.33a1.703 1.703 0 00-.534.85l.007 5.434h-1.78v-5.215c-.024-.932-.5-1.399-1.428-1.399-.713 0-1.218.291-1.516.872v5.742h-1.78v-7.925h1.677zM307.25 147.944c-.078-.151-.146-.398-.205-.74a2.769 2.769 0 01-2.08.887c-.796 0-1.445-.227-1.948-.682a2.177 2.177 0 01-.754-1.684c0-.845.312-1.492.937-1.941.63-.454 1.529-.681 2.696-.681h1.091v-.52c0-.41-.115-.738-.344-.982-.23-.249-.579-.373-1.048-.373-.405 0-.737.102-.996.307a.932.932 0 00-.388.769h-1.78c0-.434.144-.839.432-1.215.288-.381.679-.679 1.172-.894a4.152 4.152 0 011.663-.322c.927 0 1.667.234 2.219.703.552.464.835 1.118.85 1.963v3.574c0 .713.1 1.282.3 1.707v.124h-1.817zm-1.955-1.282c.351 0 .681-.085.989-.256.312-.171.547-.4.703-.688v-1.495h-.96c-.659 0-1.154.115-1.486.345-.333.229-.499.554-.499.974 0 .342.113.615.337.82.23.2.535.3.916.3zM317.57 144.062c0 1.226-.278 2.205-.835 2.937-.556.728-1.303 1.092-2.241 1.092-.869 0-1.565-.286-2.087-.857v3.757h-1.78v-10.972h1.641l.073.806c.522-.635 1.233-.952 2.131-.952.967 0 1.724.361 2.271 1.084.551.718.827 1.716.827 2.995v.11zm-1.772-.154c0-.791-.159-1.418-.476-1.882-.313-.464-.762-.696-1.348-.696-.727 0-1.25.301-1.567.901v3.516c.322.615.849.923 1.582.923.566 0 1.008-.227 1.325-.681.323-.459.484-1.153.484-2.081z" fill="#1062FE"></path><path d="M25.225 195.558h4.38v.997H24v-9.243h1.225v8.246zM35.051 196.555c-.067-.136-.123-.377-.165-.724-.546.567-1.197.851-1.955.851-.677 0-1.233-.191-1.67-.572a1.871 1.871 0 01-.647-1.46c0-.715.271-1.269.813-1.663.546-.397 1.312-.596 2.298-.596h1.142v-.54c0-.41-.122-.736-.368-.977-.245-.246-.607-.369-1.085-.369-.42 0-.77.106-1.054.318-.284.211-.425.467-.425.768h-1.181c0-.343.12-.673.362-.99.245-.322.575-.576.99-.762a3.356 3.356 0 011.377-.279c.792 0 1.412.198 1.86.596.449.394.682.938.698 1.632v3.161c0 .63.08 1.132.242 1.504v.102H35.05zm-1.949-.895c.369 0 .718-.096 1.048-.286.33-.19.57-.438.717-.743v-1.409h-.92c-1.439 0-2.158.421-2.158 1.263 0 .369.122.656.368.864.245.207.56.311.946.311zM41.881 194.733c0-.317-.12-.563-.361-.736-.237-.178-.654-.33-1.251-.457-.592-.127-1.064-.28-1.416-.457-.346-.178-.605-.39-.774-.635a1.535 1.535 0 01-.248-.876c0-.563.237-1.039.711-1.428.479-.39 1.088-.584 1.829-.584.778 0 1.409.201 1.891.603.487.402.73.916.73 1.542h-1.18c0-.322-.138-.599-.413-.831-.27-.233-.614-.35-1.028-.35-.428 0-.762.094-1.003.28a.878.878 0 00-.362.73c0 .283.112.497.336.641.225.144.629.281 1.213.412.588.132 1.064.288 1.428.47.364.182.633.402.806.66.178.254.267.565.267.933 0 .614-.246 1.107-.737 1.479-.49.369-1.127.553-1.91.553-.55 0-1.037-.098-1.46-.292a2.412 2.412 0 01-.997-.813 1.993 1.993 0 01-.355-1.136h1.174c.021.393.178.707.47.939.296.229.685.343 1.168.343.444 0 .8-.089 1.066-.266.27-.182.406-.424.406-.724zM46.179 188.023v1.664h1.282v.907h-1.282v4.26c0 .275.057.482.171.622.114.135.309.203.584.203.136 0 .322-.026.559-.076v.952a3.43 3.43 0 01-.902.127c-.524 0-.92-.159-1.187-.476-.266-.318-.4-.768-.4-1.352v-4.26h-1.25v-.907h1.25v-1.664h1.175zM56.303 195.875c-.457.538-1.127.807-2.012.807-.732 0-1.29-.212-1.676-.635-.38-.428-.573-1.058-.577-1.892v-4.468h1.174v4.437c0 1.041.423 1.561 1.27 1.561.897 0 1.493-.334 1.79-1.003v-4.995h1.174v6.868h-1.117l-.026-.68zM65.038 193.197c0 1.045-.24 1.887-.718 2.526-.478.639-1.125.959-1.942.959-.834 0-1.49-.265-1.968-.794v3.307h-1.174v-9.508h1.073l.057.761c.478-.592 1.142-.888 1.993-.888.825 0 1.477.311 1.955.933.482.622.724 1.487.724 2.596v.108zm-1.175-.134c0-.774-.165-1.385-.495-1.834-.33-.449-.783-.673-1.358-.673-.711 0-1.244.315-1.6.946v3.282c.351.626.889.939 1.613.939.562 0 1.009-.222 1.339-.666.334-.449.501-1.113.501-1.994zM66.25 193.063c0-1.053.25-1.9.749-2.539.5-.643 1.153-.964 1.961-.964.805 0 1.441.275 1.911.825v-3.58h1.174v9.75h-1.079l-.057-.737c-.47.576-1.123.864-1.961.864-.796 0-1.445-.326-1.949-.978-.5-.652-.749-1.502-.749-2.552v-.089zm1.174.134c0 .778.161 1.388.483 1.828.321.44.766.66 1.333.66.745 0 1.288-.334 1.631-1.003v-3.155c-.351-.647-.89-.971-1.619-.971-.575 0-1.024.222-1.345.667-.322.444-.483 1.102-.483 1.974zM78.114 196.555c-.068-.136-.123-.377-.165-.724-.546.567-1.198.851-1.955.851-.677 0-1.234-.191-1.67-.572a1.871 1.871 0 01-.647-1.46c0-.715.27-1.269.812-1.663.546-.397 1.312-.596 2.298-.596h1.143v-.54c0-.41-.123-.736-.369-.977-.245-.246-.607-.369-1.085-.369-.419 0-.77.106-1.054.318-.283.211-.425.467-.425.768h-1.18c0-.343.12-.673.361-.99.246-.322.576-.576.99-.762a3.356 3.356 0 011.378-.279c.791 0 1.411.198 1.86.596.448.394.681.938.698 1.632v3.161c0 .63.08 1.132.241 1.504v.102h-1.231zm-1.949-.895c.368 0 .717-.096 1.047-.286.33-.19.57-.438.718-.743v-1.409h-.92c-1.44 0-2.159.421-2.159 1.263 0 .369.123.656.368.864.246.207.56.311.946.311zM82.538 188.023v1.664h1.282v.907h-1.282v4.26c0 .275.057.482.172.622.114.135.308.203.584.203.135 0 .321-.026.558-.076v.952c-.309.084-.61.127-.901.127-.525 0-.92-.159-1.187-.476-.267-.318-.4-.768-.4-1.352v-4.26h-1.25v-.907h1.25v-1.664h1.174zM88.048 196.682c-.931 0-1.689-.305-2.273-.914-.584-.614-.876-1.433-.876-2.457v-.216c0-.681.13-1.288.388-1.822a3.047 3.047 0 011.091-1.256c.47-.305.978-.457 1.524-.457.893 0 1.587.294 2.082.882.495.588.743 1.43.743 2.526v.489h-4.653c.017.677.213 1.225.59 1.644.38.415.863.622 1.447.622.415 0 .766-.084 1.054-.254.288-.169.54-.393.755-.673l.718.559c-.576.884-1.44 1.327-2.59 1.327zm-.146-6.158c-.474 0-.872.174-1.194.521-.321.343-.52.825-.596 1.447h3.44v-.089c-.034-.596-.194-1.058-.482-1.383-.288-.331-.677-.496-1.168-.496zM91.806 193.063c0-1.053.25-1.9.749-2.539.499-.643 1.153-.964 1.961-.964.804 0 1.441.275 1.91.825v-3.58h1.175v9.75h-1.079l-.057-.737c-.47.576-1.124.864-1.962.864-.795 0-1.445-.326-1.948-.978-.5-.652-.75-1.502-.75-2.552v-.089zm1.174.134c0 .778.16 1.388.482 1.828.322.44.766.66 1.333.66.745 0 1.289-.334 1.632-1.003v-3.155c-.352-.647-.891-.971-1.619-.971-.575 0-1.024.222-1.346.667-.321.444-.482 1.102-.482 1.974zM99.391 195.939c0-.203.06-.372.178-.508.123-.135.305-.203.546-.203.241 0 .423.068.546.203.127.136.19.305.19.508a.674.674 0 01-.19.489c-.123.131-.305.197-.546.197-.241 0-.423-.066-.546-.197a.702.702 0 01-.178-.489zm.006-5.605c0-.203.06-.372.178-.508.123-.135.305-.203.546-.203.241 0 .423.068.546.203.127.136.19.305.19.508a.674.674 0 01-.19.489c-.123.131-.305.197-.546.197-.241 0-.423-.066-.546-.197a.702.702 0 01-.178-.489z" fill="#7C8088"></path><path d="M115.084 195.59v.965h-6.049v-.845l3.028-3.37c.372-.415.66-.766.863-1.054.208-.292.352-.552.432-.781.085-.232.127-.469.127-.711 0-.304-.064-.579-.191-.825a1.423 1.423 0 00-.545-.596c-.242-.149-.534-.223-.876-.223-.411 0-.754.081-1.029.242a1.474 1.474 0 00-.609.66 2.23 2.23 0 00-.203.977h-1.175c0-.52.115-.996.343-1.428a2.525 2.525 0 011.016-1.028c.448-.258 1.001-.387 1.657-.387.584 0 1.083.103 1.498.311.414.203.732.49.952.863.224.368.336.8.336 1.295 0 .271-.046.546-.139.825-.089.275-.214.55-.375.825a6.554 6.554 0 01-.552.813 13 13 0 01-.667.787l-2.475 2.685h4.633zM122.168 194.054c0 .563-.131 1.041-.393 1.434-.258.39-.609.686-1.054.889a3.52 3.52 0 01-1.492.305 3.568 3.568 0 01-1.498-.305 2.457 2.457 0 01-1.053-.889c-.258-.393-.387-.871-.387-1.434 0-.368.069-.705.209-1.01.144-.308.345-.577.603-.806.262-.228.571-.404.927-.527a3.54 3.54 0 011.187-.19c.567 0 1.073.11 1.517.33.444.216.793.514 1.047.895.258.381.387.817.387 1.308zm-1.18-.026c0-.342-.074-.645-.222-.907a1.57 1.57 0 00-.622-.622 1.87 1.87 0 00-.927-.223c-.36 0-.671.074-.933.223a1.55 1.55 0 00-.603.622 1.854 1.854 0 00-.216.907c0 .356.07.66.209.914.144.25.347.443.61.578.266.131.582.197.945.197.364 0 .678-.066.94-.197a1.42 1.42 0 00.603-.578c.144-.254.216-.558.216-.914zm.965-4.31c0 .449-.119.853-.356 1.213a2.473 2.473 0 01-.971.85 3.048 3.048 0 01-1.397.311c-.528 0-1-.103-1.415-.311a2.422 2.422 0 01-.965-.85 2.183 2.183 0 01-.349-1.213c0-.537.116-.994.349-1.371.237-.376.561-.664.971-.863a3.177 3.177 0 011.403-.298c.529 0 .999.099 1.409.298.411.199.732.487.965.863.237.377.356.834.356 1.371zm-1.175.019c0-.309-.065-.582-.196-.819a1.45 1.45 0 00-.546-.558 1.548 1.548 0 00-.813-.21c-.309 0-.58.066-.812.197a1.364 1.364 0 00-.54.546c-.127.237-.19.518-.19.844 0 .318.063.595.19.832.131.237.313.421.546.552.233.131.504.197.812.197.309 0 .578-.066.807-.197.232-.131.414-.315.546-.552.131-.237.196-.514.196-.832zM126.656 189.687v.901h-3.713v-.901h3.713zm-2.456-1.67h1.174v6.837c0 .232.036.408.108.526a.514.514 0 00.279.235c.114.038.237.057.368.057.098 0 .199-.008.305-.025.11-.021.193-.038.248-.051l.006.959a2.798 2.798 0 01-.368.082c-.148.03-.328.045-.54.045a1.82 1.82 0 01-.793-.172 1.275 1.275 0 01-.578-.571c-.139-.271-.209-.635-.209-1.092v-6.83zM129.208 186.805v9.75h-1.174v-9.75h1.174zm-.279 6.055l-.489-.019a4.14 4.14 0 01.209-1.301c.136-.402.326-.751.572-1.047.245-.297.537-.525.876-.686a2.58 2.58 0 011.136-.247c.338 0 .643.046.914.139.271.089.501.233.692.432.195.199.343.457.444.774.102.313.153.696.153 1.149v4.501h-1.181v-4.513c0-.36-.053-.648-.159-.864a.975.975 0 00-.463-.476 1.672 1.672 0 00-.749-.152c-.292 0-.559.061-.8.184a1.921 1.921 0 00-.616.508 2.58 2.58 0 00-.539 1.618zM138.107 193.197v-.146c0-.495.072-.954.216-1.378.144-.427.351-.797.622-1.111.271-.317.599-.562.984-.736a3.05 3.05 0 011.295-.266c.483 0 .916.088 1.301.266.39.174.72.419.991.736.275.314.484.684.628 1.111.144.424.216.883.216 1.378v.146c0 .495-.072.954-.216 1.377a3.297 3.297 0 01-.628 1.111 2.874 2.874 0 01-.984.736 3.085 3.085 0 01-1.295.261c-.483 0-.916-.087-1.301-.261a2.93 2.93 0 01-.991-.736 3.353 3.353 0 01-.622-1.111 4.247 4.247 0 01-.216-1.377zm1.175-.146v.146c0 .343.04.666.12.971.081.3.201.567.362.8.165.233.37.417.616.552.245.131.531.197.857.197.321 0 .603-.066.844-.197a1.76 1.76 0 00.609-.552c.161-.233.282-.5.362-.8.085-.305.127-.628.127-.971v-.146a3.51 3.51 0 00-.127-.959 2.469 2.469 0 00-.368-.806 1.748 1.748 0 00-.609-.558 1.707 1.707 0 00-.851-.204c-.321 0-.605.068-.85.204a1.814 1.814 0 00-.61.558 2.567 2.567 0 00-.362.806c-.08.301-.12.62-.12.959zM147.584 196.555h-1.174v-7.592c0-.495.089-.912.267-1.251.182-.342.442-.601.781-.774.338-.178.74-.267 1.206-.267a3.267 3.267 0 01.812.102l-.063.958a1.923 1.923 0 00-.305-.044 4.55 4.55 0 00-.33-.013c-.25 0-.466.051-.648.153a.959.959 0 00-.406.431c-.093.191-.14.426-.14.705v7.592zm1.46-6.868v.901h-3.719v-.901h3.719zM157.633 193.857v-6.545h1.219v6.545c0 .609-.125 1.123-.375 1.542-.25.419-.595.739-1.035.959-.435.216-.937.324-1.504.324s-1.071-.098-1.511-.292a2.278 2.278 0 01-1.034-.889c-.25-.398-.375-.899-.375-1.504h1.225c0 .389.072.708.216.958.144.25.343.434.597.552.258.119.552.178.882.178.322 0 .609-.068.863-.203.258-.14.462-.345.61-.616.148-.275.222-.611.222-1.009zM164.952 194.968v-5.281h1.18v6.868h-1.123l-.057-1.587zm.222-1.447l.489-.013c0 .457-.049.88-.146 1.269-.093.385-.246.72-.457 1.003a2.163 2.163 0 01-.832.667c-.343.156-.76.235-1.25.235-.335 0-.642-.049-.921-.146a1.85 1.85 0 01-.711-.451 2.052 2.052 0 01-.463-.793c-.106-.326-.159-.718-.159-1.175v-4.43h1.174v4.443c0 .309.034.565.102.768.072.199.167.358.286.476.122.114.258.195.406.241.152.047.309.07.47.07.499 0 .895-.095 1.187-.286.292-.194.501-.455.628-.78.131-.33.197-.696.197-1.098zM169.198 186.805v9.75h-1.18v-9.75h1.18zM173.013 195.844l1.911-6.157h1.257l-2.755 7.928a4.451 4.451 0 01-.254.546 2.629 2.629 0 01-.394.565c-.16.177-.355.321-.584.431a1.76 1.76 0 01-.806.172 3.589 3.589 0 01-.66-.102l-.006-.952c.034.004.086.008.158.013a1.885 1.885 0 00.838-.096c.186-.067.343-.184.47-.349.131-.161.243-.383.336-.666l.489-1.333zm-1.403-6.157l1.784 5.332.305 1.237-.845.432-2.526-7.001h1.282zM186.394 195.59v.965h-6.049v-.845l3.028-3.37c.372-.415.66-.766.863-1.054.207-.292.351-.552.431-.781.085-.232.127-.469.127-.711 0-.304-.063-.579-.19-.825a1.432 1.432 0 00-.546-.596c-.241-.149-.533-.223-.876-.223-.41 0-.753.081-1.028.242a1.482 1.482 0 00-.61.66 2.245 2.245 0 00-.203.977h-1.174a3 3 0 01.343-1.428 2.523 2.523 0 011.015-1.028c.449-.258 1.001-.387 1.657-.387.584 0 1.083.103 1.498.311.415.203.732.49.952.863.225.368.337.8.337 1.295a2.6 2.6 0 01-.14.825 4.24 4.24 0 01-.374.825 6.455 6.455 0 01-.553.813c-.207.266-.429.529-.666.787l-2.476 2.685h4.634zM193.453 191.197v1.409c0 .758-.068 1.397-.203 1.917-.136.521-.331.94-.584 1.257a2.22 2.22 0 01-.921.692c-.355.14-.757.21-1.206.21-.355 0-.683-.045-.984-.134-.3-.089-.571-.23-.812-.425a2.596 2.596 0 01-.61-.774 4.178 4.178 0 01-.387-1.156 8.305 8.305 0 01-.133-1.587v-1.409c0-.757.068-1.392.203-1.904.14-.512.336-.923.59-1.231.254-.314.559-.538.914-.673a3.39 3.39 0 011.206-.203c.36 0 .69.044.991.133.304.084.575.222.812.412.237.187.438.436.603.749.169.309.298.688.387 1.137a8.2 8.2 0 01.134 1.58zm-1.181 1.6V191c0-.414-.025-.778-.076-1.091a3.45 3.45 0 00-.21-.813 1.61 1.61 0 00-.355-.546 1.26 1.26 0 00-.489-.304 1.75 1.75 0 00-.616-.102c-.279 0-.526.053-.742.159a1.325 1.325 0 00-.546.489c-.144.224-.254.518-.33.882a6.59 6.59 0 00-.115 1.326v1.797c0 .415.024.781.07 1.098.051.317.125.592.222.825.098.229.216.417.356.565.14.148.3.258.482.33.187.068.392.102.616.102.288 0 .54-.055.755-.165.216-.11.396-.282.54-.514.148-.237.258-.54.33-.908a7.13 7.13 0 00.108-1.333zM201.019 195.59v.965h-6.049v-.845l3.028-3.37c.372-.415.66-.766.863-1.054.207-.292.351-.552.431-.781.085-.232.127-.469.127-.711 0-.304-.063-.579-.19-.825a1.432 1.432 0 00-.546-.596c-.241-.149-.533-.223-.876-.223-.41 0-.753.081-1.028.242a1.482 1.482 0 00-.61.66 2.245 2.245 0 00-.203.977h-1.174a3 3 0 01.343-1.428 2.523 2.523 0 011.015-1.028c.449-.258 1.001-.387 1.657-.387.584 0 1.083.103 1.498.311.415.203.732.49.952.863.225.368.337.8.337 1.295a2.6 2.6 0 01-.14.825 4.24 4.24 0 01-.374.825 6.455 6.455 0 01-.553.813c-.207.266-.429.529-.666.787l-2.476 2.685h4.634zM203.99 191.356h.838c.41 0 .749-.068 1.015-.203.271-.14.472-.328.603-.565.136-.241.203-.512.203-.813 0-.355-.059-.653-.177-.895a1.196 1.196 0 00-.534-.546c-.237-.122-.537-.184-.901-.184-.33 0-.622.066-.876.197-.25.127-.446.309-.59.546-.14.237-.21.516-.21.838h-1.174c0-.47.119-.897.355-1.282.237-.385.57-.692.997-.921.432-.228.931-.342 1.498-.342.559 0 1.047.099 1.466.298.419.195.745.487.978.876.233.385.349.865.349 1.441 0 .233-.055.482-.165.749a2.222 2.222 0 01-.501.736 2.594 2.594 0 01-.876.565c-.36.144-.792.216-1.295.216h-1.003v-.711zm0 .965v-.705h1.003c.588 0 1.075.07 1.46.21.385.139.687.326.907.558.225.233.381.489.47.768.093.275.14.55.14.826 0 .431-.074.814-.222 1.148-.144.335-.35.618-.616.851a2.64 2.64 0 01-.927.527 3.667 3.667 0 01-1.162.178 3.67 3.67 0 01-1.136-.172 2.937 2.937 0 01-.933-.495 2.327 2.327 0 01-.635-.806 2.542 2.542 0 01-.228-1.098h1.174c0 .321.07.603.21.844.144.241.347.43.609.565.267.131.58.197.939.197.36 0 .669-.062.927-.184a1.33 1.33 0 00.603-.572c.144-.253.216-.573.216-.958s-.08-.7-.241-.946a1.409 1.409 0 00-.686-.552 2.653 2.653 0 00-1.034-.184h-.838zM216.672 187.262v9.293h-1.174v-7.827l-2.368.863v-1.06l3.358-1.269h.184zM226.181 195.59v.965h-6.049v-.845l3.028-3.37c.372-.415.66-.766.863-1.054.207-.292.351-.552.432-.781.084-.232.127-.469.127-.711 0-.304-.064-.579-.191-.825a1.432 1.432 0 00-.546-.596c-.241-.149-.533-.223-.876-.223-.41 0-.753.081-1.028.242a1.474 1.474 0 00-.609.66 2.23 2.23 0 00-.204.977h-1.174a3 3 0 01.343-1.428 2.523 2.523 0 011.015-1.028c.449-.258 1.001-.387 1.657-.387.584 0 1.084.103 1.498.311.415.203.732.49.952.863.225.368.337.8.337 1.295a2.6 2.6 0 01-.14.825 4.18 4.18 0 01-.374.825 6.455 6.455 0 01-.553.813c-.207.266-.429.529-.666.787l-2.476 2.685h4.634zM227.514 195.933c0-.199.062-.366.184-.502.127-.139.309-.209.546-.209.237 0 .417.07.54.209.127.136.19.303.19.502a.699.699 0 01-.19.495c-.123.135-.303.203-.54.203-.237 0-.419-.068-.546-.203a.716.716 0 01-.184-.495zm.007-5.605a.72.72 0 01.184-.502c.127-.139.309-.209.545-.209.237 0 .417.07.54.209.127.136.19.303.19.502a.699.699 0 01-.19.495c-.123.135-.303.203-.54.203-.236 0-.418-.068-.545-.203a.711.711 0 01-.184-.495zM236.388 191.197v1.409c0 .758-.068 1.397-.203 1.917-.135.521-.33.94-.584 1.257a2.223 2.223 0 01-.92.692c-.356.14-.758.21-1.206.21-.356 0-.684-.045-.984-.134a2.327 2.327 0 01-.813-.425 2.578 2.578 0 01-.609-.774 4.178 4.178 0 01-.387-1.156 8.298 8.298 0 01-.134-1.587v-1.409c0-.757.068-1.392.203-1.904.14-.512.337-.923.591-1.231.254-.314.558-.538.914-.673a3.39 3.39 0 011.206-.203c.36 0 .69.044.99.133.305.084.576.222.813.412.237.187.438.436.603.749.169.309.298.688.387 1.137.089.448.133.975.133 1.58zm-1.18 1.6V191c0-.414-.026-.778-.077-1.091a3.404 3.404 0 00-.209-.813 1.611 1.611 0 00-.356-.546 1.25 1.25 0 00-.488-.304 1.753 1.753 0 00-.616-.102c-.279 0-.527.053-.743.159a1.325 1.325 0 00-.546.489c-.144.224-.254.518-.33.882a6.598 6.598 0 00-.114 1.326v1.797c0 .415.023.781.07 1.098.051.317.125.592.222.825.097.229.216.417.355.565.14.148.301.258.483.33.186.068.391.102.616.102.287 0 .539-.055.755-.165.216-.11.396-.282.54-.514.148-.237.258-.54.33-.908a7.13 7.13 0 00.108-1.333zM241.758 187.262v9.293h-1.174v-7.827l-2.368.863v-1.06l3.358-1.269h.184z" fill="#393D45"></path><defs><clipPath id="cms-center-right-1_svg__clip0_4607_18023"><path fill="#fff" transform="translate(0 56)" d="M0 0h366v1H0z"></path></clipPath><clipPath id="cms-center-right-1_svg__clip1_4607_18023"><path fill="#fff" transform="translate(129.122 87)" d="M0 0h12v12H0z"></path></clipPath><clipPath id="cms-center-right-1_svg__clip2_4607_18023"><path fill="#fff" transform="translate(324 87)" d="M0 0h12v12H0z"></path></clipPath></defs></svg>