<svg width="69" height="105" fill="none" xmlns="http://www.w3.org/2000/svg" data-v-657fa975=""><path d="M28.828 5.373C13.463 13.901 1.001 34.421 1 51.476 1 62.44 3.962 69.58 15.132 72.002v26.844l8.744 4.725L59.274 7.664 49.137 2.228c-4.995-2.529-12.853-.993-20.309 3.145z" fill="#1062fe" stroke="#1062fe" stroke-width="2" stroke-linejoin="round"></path><path d="M38.968 82.233l-15.024 21.368V75.789C15.84 74.606 9.939 67.663 9.939 56.562c0-17.26 12.998-38.25 29.032-46.88C55.004 1.05 68 8.045 68 25.306c0 11.1-5.989 24.356-14.091 34.262v28.455l-14.94-5.79z" fill="#009aff"></path><path d="M23.944 103.601h-1a1.001 1.001 0 001.818.575l-.818-.575zm15.024-21.368l.362-.932a1 1 0 00-1.18.357l.818.575zm14.94 5.791l-.36.933a1 1 0 001.36-.933h-1zM9.94 56.562h-1 1zm29.032-46.88l.474.88-.474-.88zM68 25.306h1-1zM23.944 75.789h1v-.865l-.856-.125-.144.99zm29.965-16.22l-.774-.633-.226.276v.357h1zm-29.147 44.607l15.024-21.368-1.636-1.15-15.024 21.368 1.636 1.15zm13.845-21.01l14.94 5.79.723-1.864L39.33 81.3l-.723 1.865zM10.939 56.562c0-8.397 3.17-17.779 8.354-26.15 5.182-8.368 12.32-15.635 20.152-19.85L38.497 8.8c-8.203 4.415-15.58 11.959-20.905 20.558-5.323 8.596-8.653 18.34-8.653 27.203h2zm28.506-46c7.839-4.22 14.723-4.51 19.579-1.897C63.856 11.266 67 16.92 67 25.307h2c0-8.872-3.353-15.348-9.028-18.403C54.32 3.862 46.69 4.39 38.497 8.801l.948 1.76zM24.088 74.799c-7.506-1.096-13.15-7.518-13.149-18.237h-2c0 11.483 6.162 18.946 14.86 20.216l.29-1.979zm-1.144.99V103.6h2V75.789h-2zM67 25.307c0 10.796-5.854 23.834-13.865 33.629l1.548 1.266C62.876 50.185 69 36.713 69 25.307h-2zM54.909 88.024V59.57h-2v28.455h2z" fill="#009aff"></path><path d="M61.3 28.406c0 13.154-9.998 29.149-22.331 35.726-12.334 6.578-22.331 1.246-22.33-11.908 0-13.153 9.998-29.149 22.331-35.726C51.304 9.92 61.301 15.252 61.3 28.406z" fill="#1062fe" stroke="#1062fe" stroke-width="2"></path><path d="M40.811 29.468v19.26l-2.752 1.59V34.827l-4.076 3.949v-2.624l6.497-6.493.331-.191z" fill="#fff"></path><path d="M40.811 29.468l.866-.5c0-.553-.388-.776-.866-.5v1zm0 19.26v1c.478-.275.865-.947.865-1.5l-.866.5zm-2.752 1.59l-.866.5c0 .552.388.776.866.5v-1zm0-15.491l.866-.5c0-.322-.134-.547-.361-.604-.227-.057-.518.061-.783.317l.278.787zm-4.076 3.949l-.866.5c0 .322.135.547.362.604.227.056.518-.062.782-.318l-.278-.786zm0-2.624l-.297-.768c-.341.342-.569.848-.569 1.268l.867-.5zm6.497-6.493v-1a1.457 1.457 0 00-.297.232l.297.768zm-.535.309v19.26l1.731-1 .001-19.26-1.732 1zm.865 17.76l-2.751 1.59v2l2.751-1.59v-2zm-1.885 2.09V34.327l-1.732 1v15.49l1.732-1zM37.78 34.04l-4.076 3.949.556 1.573 4.076-3.948-.556-1.574zm-2.932 4.236v-2.624l-1.731 1v2.623l1.731-1zm-.568-1.357l6.496-6.493-.594-1.535-6.497 6.493.595 1.535zm6.199-6.26l.331-.191v-2l-.331.19v2z" fill="#fff"></path></svg>