<svg width="177" height="248" fill="none" xmlns="http://www.w3.org/2000/svg" data-v-657fa975=""><path transform="scale(1.22477 .70707) rotate(-45 413.512 90.685)" fill="url(#cms-website_page_management-server_svg__paint0_linear_4663_42347)" fill-opacity=".08" d="M0 0h80.823v42.955H0z"></path><path d="M70.01 4.827l69.997 36.66v143.746l-69.992 40.411L.008 185.233V41.487L70.01 4.827z" fill="#f4f4f4"></path><path d="M70 1l70 40.407-70 40.41-70-40.41L70 1z" fill="#f4f4f4"></path><path d="M0 41.402l70 40.416v143.83L.005 185.232 0 41.402z" fill="#f4f4f4"></path><path d="M10 61.524l50.002 28.867L60 206.977 10 178.11V61.524zM70 81.818l70.001-40.416v143.83l-70 40.416V81.818z" fill="#e6e8ec"></path><path d="M18 155.307l42 24.242v16.426l-41.996-24.243L18 155.307z" fill="#35B65E"></path><path d="M48 172.623l4 2.314v16.425l-4-2.314v-16.425zM40.004 167.997L44 170.311v16.425l-3.995-2.314-.001-16.425z" fill="#31854C"></path><ellipse cx="1.738" cy="1.829" rx="1.738" ry="1.829" transform="matrix(.86601 .50003 .00003 1 22.025 164.648)" fill="#fff"></ellipse><ellipse cx="1.732" cy="1.829" rx="1.732" ry="1.829" transform="matrix(.86601 .50003 .00003 1 28.02 168.076)" fill="#fff"></ellipse><path d="M18 129.307l42 24.242v16.426l-41.996-24.243L18 129.307z" fill="#35B65E"></path><path d="M48 146.623l4 2.314v16.425l-4-2.314v-16.425zM40.004 141.997L44 144.311v16.425l-3.995-2.314-.001-16.425z" fill="#31854C"></path><ellipse cx="1.738" cy="1.829" rx="1.738" ry="1.829" transform="matrix(.86601 .50003 .00003 1 22.025 138.648)" fill="#fff"></ellipse><ellipse cx="1.732" cy="1.829" rx="1.732" ry="1.829" transform="matrix(.86601 .50003 .00003 1 28.02 142.076)" fill="#fff"></ellipse><path d="M18 103.307l42 24.242v16.426l-41.996-24.243L18 103.307z" fill="#f4f4f4"></path><path d="M48 120.623l4 2.314v16.425l-4-2.314v-16.425zM40.004 115.997l4.002 2.314v16.425l-4.001-2.314-.001-16.425z" fill="var(--gray-lighter)"></path><ellipse cx="1.738" cy="1.829" rx="1.738" ry="1.829" transform="matrix(.86601 .50003 .00003 1 22.025 112.648)" fill="#fff"></ellipse><ellipse cx="1.732" cy="1.829" rx="1.732" ry="1.829" transform="matrix(.86601 .50003 .00003 1 28.02 116.076)" fill="#fff"></ellipse><path d="M18 77.307l42 24.242v16.426L18.004 93.733 18 77.306z" fill="#f4f4f4"></path><path d="M48 94.623l4 2.314v16.425l-4-2.314V94.623zM40.004 89.997L44 92.311v16.425l-3.995-2.314-.001-16.425z" fill="var(--gray-lighter)"></path><ellipse cx="1.738" cy="1.829" rx="1.738" ry="1.829" transform="matrix(.86601 .50003 .00003 1 22.025 86.648)" fill="#fff"></ellipse><ellipse cx="1.732" cy="1.829" rx="1.732" ry="1.829" transform="matrix(.86601 .50003 .00003 1 28.02 90.076)" fill="#fff"></ellipse><defs><linearGradient id="cms-website_page_management-server_svg__paint0_linear_4663_42347" x1="44.012" y1="-8.796" x2="43.776" y2="35.691" gradientUnits="userSpaceOnUse"><stop stop-color="#181B1F"></stop><stop offset="1" stop-color="#181B1F" stop-opacity="0"></stop></linearGradient></defs></svg>