<svg width="64" height="84" fill="none" xmlns="http://www.w3.org/2000/svg" data-v-6380b091=""><path d="M42.234 79.095L63.11 4.528C64.16.776 61.553 0 61.553 0h-9.2l-25.18 43.32L6.607 83.917h7.61c1.123 0 2.32 0 2.9-.881L33.29 58.517l-2.07 22.594h6.906c2.244 0 3.411 0 4.108-2.016z" fill="#1062FE"></path><path d="M33.026 79.094L53.902 4.523c.725-2.592-.612-5.244-2.19-4.344L6.302 26.095c-1.557.888-1.923 4.432-.608 5.876L16.861 44.23.698 68.733c-.813 1.232-.933 3.297-.27 4.614l4.807 9.534c.664 1.317 1.86 1.386 2.673.154l16.174-24.52 5.504 20.837c.649 2.455 2.724 2.3 3.44-.258z" fill="#009AFF"></path></svg>