<svg xmlns="http://www.w3.org/2000/svg" xml:space="preserve" id="website-maintenance-error" x="0" y="0" style="enable-background:new 0 0 4000 3000" version="1.1" viewBox="0 0 4000 3000">
  <g id="XMLID_1_">
    <g id="XMLID_2814_">
      <path id="XMLID_2866_" d="M1018 1862H868v-480H462.7l-61.4-118.1 480.3-683.2 136.4 43.1V1232h110v150h-110v480zm-410.9-630H868V860.9L607.1 1232z" style="fill:#d3e8f9"></path>
    </g>
    <g id="XMLID_2813_">
      <path id="XMLID_2863_" d="M3477 1862h-150v-480h-404.6l-61.4-118.1 479.6-683.2 136.4 43.1V1232h111v150h-111v480zm-410.3-630H3327V861.2L3066.7 1232z" style="fill:#d3e8f9"></path>
    </g>
    <path id="XMLID_2861_" d="M2024.8 1936.5c-93.6 0-184.5-18.4-270.1-54.6-82.6-35-156.8-85-220.5-148.7-63.7-63.7-113.7-137.9-148.7-220.5-36.2-85.6-54.6-176.5-54.6-270.1s18.4-184.5 54.6-270.1c35-82.6 85-156.8 148.7-220.5 63.7-63.7 137.9-113.7 220.5-148.7 85.6-36.2 176.5-54.6 270.1-54.6s184.5 18.4 270.1 54.6c82.6 35 156.8 85 220.5 148.7 63.7 63.7 113.7 137.9 148.7 220.5 36.2 85.6 54.6 176.5 54.6 270.1s-18.4 184.5-54.6 270.1c-35 82.6-85 156.8-148.7 220.5-63.7 63.7-137.9 113.7-220.5 148.7-85.6 36.3-176.5 54.6-270.1 54.6z" style="fill:#d3e8f9"></path>
    <path id="XMLID_2862_" d="M2024.8 698.8c-299.9 0-543.9 244-543.9 543.9s244 543.9 543.9 543.9 543.9-244 543.9-543.9-244-543.9-543.9-543.9z" style="fill:#d3e8f9"></path>
    <path id="XMLID_2629_" d="M3368.1 2210.9s-67.3 80 0 144.5c0 0-100.2 14.3-100.2-81.5s100.2-63 100.2-63z" style="fill:#0a1324"></path>
    <path id="XMLID_2627_" d="M2175.7 1615.2c5.6-43.1-83-83.8-83-83.8-76-39.9-158.1-17.5-158.1-17.5-123.9 25.4-111.1 85.7-111.1 85.7l352.2 15.6z" style="fill:#0a1324"></path>
    <path id="XMLID_2639_" d="m3208.6 2228.2-248.4-18.1-342.4-133.8c-113.4-71.8-242.1-360-242.1-360l-47.8 11.7-10.5 229.1 43.7 50s35.1 70.4 135.6 151.7L2951 2355l263.7.4" style="fill:#1f3e76"></path>
    <path id="XMLID_2632_" d="m2754.1 2129.6-136.4-53.3c-13-8.3-26.3-19.4-39.5-32.6-17.7 100.6-110.4 90.5-110.4 90.5 9 8 18.6 16.3 28.9 24.6l216.3 93.4 41.1-122.6z" style="fill:#0a1324"></path>
    <path id="XMLID_2626_" d="m2354 2156.8 21.8-440.5s-27.5-65.5-200.1-101.1c-379.6-78.3-587.3 59.7-587.3 59.7l-10.5 361.9s.5 145 1.2 262.3 207.4 98.9 207.4 98.9l467.3 7.2 100.1-7.2v-241.2z" style="fill:#87b4de"></path>
    <path id="XMLID_2656_" d="M1826.4 1675.8s303.8-70.8 501.5 52.3l-10.5 229.1-468.9-11.4-22.1-270z" style="fill:#1f3e76"></path>
    <path id="XMLID_2640_" d="M2141 1821v-40h-90v-50h90v-40h-109.7l-20.3 20.2v180.2l20.3 19.6H2141v-40h-90v-50z" style="fill:#fff"></path>
    <path id="XMLID_2610_" d="m1701.2 900.3-67.8 306.2c-4.1 18.4-1.5 37.6 7.3 54.3l103.7 196.9c12.3 23.3 35.4 39.1 61.6 42l585.9 65c37.4 4.1 72.6-18.5 84.3-54.2l109.3-332.9c9-27.5 2.4-57.7-17.3-78.9l-179-192.5c-13.6-14.6-32.2-23.6-52.1-25.1L1785 838.3c-39.5-3.1-75.2 23.4-83.8 62z" style="fill:#87b4de"></path>
    <path id="XMLID_2793_" d="m2585.5 1177.4-109.3 333c-11.7 35.7-46.9 58.4-84.3 54.2l-585.9-65c-11.4-1.3-22.1-4.9-31.7-10.6l91.2-380.5c9.6-40.1 48.2-66.1 88.9-60.1l634.3 93.7c1.6 11.8.6 23.8-3.2 35.3z" style="fill:#1f3e76"></path>
    <path id="XMLID_2612_" d="m1859.4 997.6-119-136.7" style="fill:none;stroke:#0a1324;stroke-width:10;stroke-linecap:round;stroke-linejoin:round;stroke-miterlimit:10"></path>
    <path id="XMLID_2613_" d="m1966.7 1314.3 160.2 28.1s-33.9 76.1-105.2 60.9c-71.3-15.2-55-89-55-89z" style="fill:#fff"></path>
    <path id="XMLID_2614_" d="m2254.5 1359.8 162.3 26.1s-17.5 65.3-106.4 54.8c-88.8-10.5-55.9-80.9-55.9-80.9z" style="fill:#fff"></path>
    <path id="XMLID_2621_" d="m2620.7 2424.1-267.1-26s-58.7-28.7-58.7-119.1c0-90.4 58.7-122.1 58.7-122.1l242.7.9" style="fill:#1f3e76"></path>
    <path id="XMLID_2623_" d="M2827 1886.6c-117.4-25.9-240.5 156.3-240.5 378.1s110.7 235 257.7 235" style="fill:#3279af"></path>
    <path id="XMLID_2622_" d="M2827 1886.6c133.7 11.8 209 586.5 17.3 613.1-191.7 26.6-176.8-627.2-17.3-613.1z" style="fill:#0a1324"></path>
    <path id="XMLID_2624_" d="M2383.7 2157.1s-60.2 139 36.8 248.2" style="fill:none;stroke:#0a1324;stroke-width:10;stroke-linecap:round;stroke-linejoin:round;stroke-miterlimit:10"></path>
    <path id="XMLID_2625_" d="M2471.2 2157.7s-27.8 167.4 76 261" style="fill:none;stroke:#0a1324;stroke-width:10;stroke-linecap:round;stroke-linejoin:round;stroke-miterlimit:10"></path>
    <path id="XMLID_2628_" d="M889.9 2174.7s234.6 23.6 387.4-71.4c159.5-99.2 311.1-428.4 311.1-428.4s58-10.3 92.8 78.2c34.8 88.4-11.7 155.4-11.7 155.4s-170.3 271.1-335.4 366.1-435.6 47.1-435.6 47.1" style="fill:#1f3e76"></path>
    <path id="XMLID_2634_" d="M1547.1 1756.7s49.2 23.1 64.1 236.7" style="fill:none;stroke:#0a1324;stroke-width:10;stroke-linecap:round;stroke-linejoin:round;stroke-miterlimit:10"></path>
    <path id="XMLID_2635_" d="M1468.2 1890.8s57.5 64.1 37.1 234.7" style="fill:none;stroke:#0a1324;stroke-width:10;stroke-linecap:round;stroke-linejoin:round;stroke-miterlimit:10"></path>
    <path id="XMLID_2636_" d="M1356.1 2036.8s46.3 113.8-5.2 227.6" style="fill:none;stroke:#0a1324;stroke-width:10;stroke-linecap:round;stroke-linejoin:round;stroke-miterlimit:10"></path>
    <path id="XMLID_2637_" d="M1207.5 2137.2s10.4 131.5-76.4 193.4" style="fill:none;stroke:#0a1324;stroke-width:10;stroke-linecap:round;stroke-linejoin:round;stroke-miterlimit:10"></path>
    <path id="XMLID_2638_" d="M1029.2 2174.4s-2 109.4-62.1 153" style="fill:none;stroke:#0a1324;stroke-width:10;stroke-linecap:round;stroke-linejoin:round;stroke-miterlimit:10"></path>
    <path id="XMLID_3685_" d="m3436.6 2355 89.4-10v54.1l-91.1 41.3" style="fill:#0a1324"></path>
    <path id="XMLID_2644_" d="m3434.9 2125.4 91.1 33.6v51l-89.4.1" style="fill:#0a1324"></path>
    <path id="XMLID_3688_" d="M3283.8 2282.8c1.1 91.4 152.9 72.2 152.9 72.2l-1.7 85.4c-114.6-3.8-235.1-31.5-236.9-150-1.8-118.5 101.2-169 237.1-165l1.9 84.7c-.1 0-154.4-18.7-153.3 72.7z" style="fill:#3279af"></path>
    <path id="XMLID_2647_" d="M2438.3 1841.1s20 160.6-31.9 230.2" style="fill:none;stroke:#0a1324;stroke-width:10;stroke-linecap:round;stroke-linejoin:round;stroke-miterlimit:10"></path>
    <path id="XMLID_2648_" d="M2534.8 1993.4s36 103.1 0 164.3" style="fill:none;stroke:#0a1324;stroke-width:10;stroke-linecap:round;stroke-linejoin:round;stroke-miterlimit:10"></path>
    <path id="XMLID_2649_" d="M3132.7 2222.7s-21.7 90.2 40.5 132.7" style="fill:none;stroke:#0a1324;stroke-width:10;stroke-linecap:round;stroke-linejoin:round;stroke-miterlimit:10"></path>
    <path id="XMLID_2650_" d="M3011 2213.8s-21.5 95.7 37.9 141.2" style="fill:none;stroke:#0a1324;stroke-width:10;stroke-linecap:round;stroke-linejoin:round;stroke-miterlimit:10"></path>
    <path id="XMLID_2651_" d="M2046 949.3s7.5-127.7 163.2-111.3c155.8 16.5 147.2 147.4 147.2 147.4s-16.3 31.6-120.1 22.6-190.3-58.7-190.3-58.7z" style="fill:#3279af"></path>
    <path id="XMLID_2652_" d="M2173.2 880.5 2046 497.3" style="fill:none;stroke:#0a1324;stroke-width:10;stroke-linecap:round;stroke-linejoin:round;stroke-miterlimit:10"></path>
    <circle id="XMLID_2653_" cx="2046" cy="490.6" r="59.7" style="fill:#3279af"></circle>
    <path id="XMLID_2655_" d="m2248.5 895.7 137.3-194.1 191.3 178.9" style="fill:none;stroke:#0a1324;stroke-width:10;stroke-linecap:round;stroke-linejoin:round;stroke-miterlimit:10"></path>
    <circle id="XMLID_2654_" cx="2589" cy="895.6" r="59.7" style="fill:#3279af"></circle>
    <path id="XMLID_2646_" d="M908.3 2328.4c-31.6 97.8-226.6 106.7-226.6 106.7l-95.6-91.4 21.8-90.8-124.1 30.7-76.3-55.4 16.1-143.6s259.7-47.6 401.1 13.3c141.6 61 115.2 132.8 83.6 230.5z" style="fill:#0a1324"></path>
    <path id="XMLID_3686_" d="m737.3 2260.6-114-71.5s235.5-1 153.4-51.3-272.4 15-272.4 15l-80.7-68.2s259.7-47.6 401.1 13.3c40.3 17.4 67 35.6 83.8 55.1 52.6 78.5-171.2 107.6-171.2 107.6z" style="fill:#3279af"></path>
    <path id="XMLID_2615_" d="m737.3 2260.6-55.6 174.5-95.5-91.4 37.1-154.6z" style="fill:#87b4de"></path>
    <path id="XMLID_2220_" d="m504.4 2152.8-20.6 130.8-76.2-55.4 16.1-143.6z" style="fill:#87b4de"></path>
    <path id="XMLID_2616_" d="m2053.7 2424.1-267.1-26s-58.7-28.7-58.7-119.1c0-90.4 58.7-122.1 58.7-122.1l242.7.9" style="fill:#1f3e76"></path>
    <path id="XMLID_2618_" d="M2260 1886.6c-117.4-25.9-240.5 156.3-240.5 378.1s110.7 235 257.7 235" style="fill:#3279af"></path>
    <path id="XMLID_2617_" d="M2260 1886.6c133.7 11.8 209 586.5 17.3 613.1-191.7 26.6-176.8-627.2-17.3-613.1z" style="fill:#0a1324"></path>
    <path id="XMLID_2619_" d="M1816.7 2157.1s-60.2 139 36.8 248.2" style="fill:none;stroke:#0a1324;stroke-width:10;stroke-linecap:round;stroke-linejoin:round;stroke-miterlimit:10"></path>
    <path id="XMLID_2620_" d="M1904.2 2157.7s-27.8 167.4 76 261" style="fill:none;stroke:#0a1324;stroke-width:10;stroke-linecap:round;stroke-linejoin:round;stroke-miterlimit:10"></path>
  </g>
</svg>
