<svg width="144" height="144" fill="none" xmlns="http://www.w3.org/2000/svg"><path d="M6 5h16" stroke="#4AA5D8" stroke-width="6" stroke-linecap="round" stroke-linejoin="round"></path><path d="M14 19h35.5M96 19h35.5M14 123h21.5M85 123h31.5M14 109h16M21 95h16M21 47h16M14 33h16.5M118 47h5M116 81h5M116 95h14.5M108 109h14.5M113.5 33H132" stroke="#DCDEE2" stroke-width="6" stroke-linecap="round" stroke-linejoin="round"></path><path d="M65.5 19H80M51.5 123H66M6 137h18" stroke="#4AA5D8" stroke-width="6" stroke-linecap="round" stroke-linejoin="round"></path><rect x="24" y="26" width="94" height="90" rx="8" fill="url(#icon_svg__paint0_linear_181_10014)"></rect><path d="M55.78 61.168L45.44 71.374 55.78 81.58M87.1 61.168l10.34 10.206L87.1 81.58M75.7 54.673l-7.52 31.546" stroke="#fff" stroke-width="6" stroke-linecap="round" stroke-linejoin="round"></path><circle cx="36.5" cy="38.5" r="2.5" fill="#fff"></circle><circle cx="45.5" cy="38.5" r="2.5" fill="#fff"></circle><ellipse cx="54.533" cy="38.5" rx="2.533" ry="2.5" fill="#fff"></ellipse><defs><linearGradient id="icon_svg__paint0_linear_181_10014" x1="71" y1="26" x2="71" y2="116" gradientUnits="userSpaceOnUse"><stop stop-color="#0772AE"></stop><stop offset="1" stop-color="#4BA6D9"></stop></linearGradient></defs></svg>