<svg width="144" height="144" fill="none" xmlns="http://www.w3.org/2000/svg"><path d="M10.5 53l54-40C68 10.497 76 10 80 13l54.5 40h-124z" fill="#E6E8EC"></path><rect x="9" y="51" width="127" height="89" rx="6" fill="#E6E8EC"></rect><path d="M18 30a8 8 0 018-8h93a8 8 0 018 8v25.086a8 8 0 01-2.343 5.657L76.9 108.5c-1.8 1.8-4.7 1.8-6.4 0L20.349 58.444A8 8 0 0118 52.782V30z" fill="url(#icon_svg__paint0_linear_37_2740)"></path><path d="M92.8 45.3c-1.5-2.7-3.8-4.9-6.6-6.3-3-1.5-6.4-2.3-9.7-2.2-4-.1-7.9.9-11.4 2.8-3.2 1.8-5.9 4.5-7.7 7.8-1.8 3.4-2.7 7.2-2.7 11.1 0 5.9 1.8 10.5 5.3 13.8 3.5 3.3 8.4 5 14.7 5 4 .1 8-.7 11.8-2.3v-4.8c-2 .7-4.1 1.3-6.2 1.7-1.9.4-3.8.6-5.8.6-4.6 0-8.2-1.2-10.6-3.7-2.4-2.5-3.7-5.9-3.6-10.5-.1-3.1.6-6.2 2-9 1.2-2.5 3.2-4.6 5.7-5.9 2.7-1.4 5.7-2.1 8.7-2.1 2.4 0 4.8.5 6.9 1.6 2 1.1 3.6 2.7 4.7 4.7 1.1 2.2 1.7 4.6 1.7 7.1.1 2.1-.2 4.1-.9 6.1-.6 1.5-1.5 2.3-2.5 2.3-1.3 0-1.9-1.2-1.9-3.4l.6-12.1c-1.4-.4-2.8-.8-4.2-1-1.6-.3-3.1-.4-4.7-.4-3.2-.1-6.3 1-8.7 3.2-2.2 2.2-3.4 5.3-3.3 8.4-.1 2.7.8 5.3 2.5 7.2 1.8 1.8 4.3 2.8 6.9 2.6 2.6.1 5.2-1.1 6.8-3.2h.4c.4 1 1.1 1.8 2 2.3 1 .6 2.1.9 3.3.9 1.8 0 3.5-.6 4.8-1.7 1.5-1.2 2.6-2.8 3.2-4.7.8-2.1 1.2-4.3 1.1-6.5-.2-3.3-1-6.5-2.6-9.4zm-21.3 7.3c1.2-1.3 3-2 4.8-1.9 1 0 1.9.1 2.9.3l-.3 5.5c0 1.8-.5 3.6-1.4 5.1-.8 1.1-2.1 1.7-3.4 1.6-2.8 0-4.3-1.7-4.3-5.2-.1-2.1.5-4 1.7-5.4z" fill="#fff"></path><path d="M134 140H12.6L66 92.5c4-4 11-4.5 16 .001l53.6 46.699c-.4.5-1 .8-1.6.8z" fill="url(#icon_svg__paint1_linear_37_2740)"></path><defs><linearGradient id="icon_svg__paint0_linear_37_2740" x1="72.5" y1="22" x2="72.5" y2="109.85" gradientUnits="userSpaceOnUse"><stop stop-color="#1062FE"></stop><stop offset="1" stop-color="#009AFF"></stop></linearGradient><linearGradient id="icon_svg__paint1_linear_37_2740" x1="74.1" y1="89.31" x2="74.1" y2="140" gradientUnits="userSpaceOnUse"><stop stop-color="#F0F2F5"></stop><stop offset="1" stop-color="#F3F6FA"></stop></linearGradient></defs></svg>