<svg width="115" height="44" fill="none" xmlns="http://www.w3.org/2000/svg"><g clip-path="url(#icon-lagom-logo_svg__clip0)"><path d="M1.741 35.282l13.828 7.805c.091.053.187.098.286.135.46.186.952.28 1.45.276.604.01 1.201-.13 1.735-.41l13.823-7.806c.237-.087.44-.243.584-.447a1.198 1.198 0 000-1.383 1.241 1.241 0 00-.584-.447l-10.714-6.05a1.563 1.563 0 00-.754-.196 1.52 1.52 0 00-.969.341 1.46 1.46 0 00-.515.872l-2.328 12.7V11.494a3.422 3.422 0 00-.503-1.674 3.455 3.455 0 00-1.232-1.26L2.02.748A1.394 1.394 0 00.614.64a1.364 1.364 0 00-.479.542 1.33 1.33 0 00-.13.706V32.34a3.4 3.4 0 00.507 1.678 3.49 3.49 0 001.229 1.263z" fill="#1062FE"></path><path d="M51.832 28.64a3.155 3.155 0 01-.428.065 3.43 3.43 0 01-1.017-.031.596.596 0 01-.306-.165 1.113 1.113 0 01-.244-.445 3.384 3.384 0 01-.106-.968V12.891a.379.379 0 00-.089-.25.394.394 0 00-.233-.134 7.232 7.232 0 00-.66-.077 8.023 8.023 0 00-1.287 0c-.24 0-.463.042-.656.077a.395.395 0 00-.232.134.379.379 0 00-.09.25v14.743c-.016.61.087 1.216.303 1.789.183.466.48.88.868 1.205.363.302.791.52 1.252.641.476.13.967.193 1.46.188.295 0 .617 0 .959-.038a3.81 3.81 0 00.957-.18.392.392 0 00.19-.14.378.378 0 00.074-.221 7.806 7.806 0 00-.24-1.966.385.385 0 00-.18-.232.4.4 0 00-.295-.04zM59.292 17.62c-.684.002-1.366.053-2.042.154-.665.09-1.322.234-1.963.43a.391.391 0 00-.204.146.378.378 0 00-.07.238c-.018.745.165 1.48.53 2.135a.39.39 0 00.198.165.401.401 0 00.26.007c.476-.143.96-.258 1.45-.345a9.189 9.189 0 011.57-.127c.69-.05 1.38.12 1.963.484.393.3.6.875.6 1.712v.035l-.447-.038c-.35-.023-.785-.039-1.346-.039a8.514 8.514 0 00-2.164.273 5.89 5.89 0 00-1.86.844c-.546.382-.993.88-1.308 1.46a4.148 4.148 0 00-.487 2.034c-.02.693.123 1.381.416 2.012a3.686 3.686 0 001.178 1.393 5.03 5.03 0 001.826.768c.76.161 1.535.238 2.312.23a16.1 16.1 0 002.627-.214c.836-.139 1.57-.277 2.16-.411a.394.394 0 00.222-.139.379.379 0 00.083-.245v-7.886c0-1.743-.487-3.044-1.44-3.862-.955-.818-2.29-1.213-4.064-1.213zm2.297 7.702v3.36a7.63 7.63 0 01-.742.107c-.688.071-1.382.071-2.07 0a2.085 2.085 0 01-.785-.226 1.47 1.47 0 01-.55-.511 1.738 1.738 0 01-.215-.948 1.565 1.565 0 01.14-.785c.115-.246.29-.46.512-.62a3.829 3.829 0 012.147-.496c.255 0 .573 0 .946.05l.617.07zM79.9 17.843a7.02 7.02 0 00-2.003.273c-.436.126-.854.31-1.24.545a6.434 6.434 0 00-1.437-.699 6.64 6.64 0 00-2.187-.341 7.117 7.117 0 00-2.356.384A5.128 5.128 0 0068.9 19.03a4.444 4.444 0 00-1.111 1.535 4.696 4.696 0 00-.393 1.893c-.012.771.177 1.532.55 2.212.27.486.626.922 1.052 1.286-.32.285-.6.611-.828.971a3.287 3.287 0 00-.471 1.774c-.02.498.116.99.392 1.409.14.199.302.382.483.545-.42.298-.785.666-1.076 1.086a3.477 3.477 0 00-.62 2.02 2.992 2.992 0 00.371 1.631c.277.5.691.913 1.195 1.195.962.556 2.356.84 4.146.84.958.007 1.912-.1 2.843-.318a7.998 7.998 0 002.316-.933 5.15 5.15 0 001.567-1.509 3.611 3.611 0 00.589-2.016 3.424 3.424 0 00-.261-1.48 3.493 3.493 0 00-.874-1.238c-.75-.656-1.892-.994-3.494-1.029l-3.341-.05c-.9 0-1.131-.188-1.178-.238a.698.698 0 01-.216-.506.974.974 0 01.251-.634c.131-.162.283-.306.452-.43.588.132 1.19.197 1.794.192a7.213 7.213 0 002.206-.326 5.277 5.277 0 001.779-.956c.504-.42.906-.945 1.178-1.536a4.625 4.625 0 00.392-1.977 4.303 4.303 0 00-.164-1.24 5.986 5.986 0 00-.153-.415h1.61a.398.398 0 00.256-.088.383.383 0 00.136-.23c.035-.208.059-.415.078-.623a6.35 6.35 0 00.028-.599 5.43 5.43 0 00-.11-1.11.382.382 0 00-.135-.21.398.398 0 00-.238-.085zm-8.021 13.753l2.862.05c.942 0 1.343.188 1.515.326a1.035 1.035 0 01.338.837c0 .514-.31.94-.938 1.305a6.002 6.002 0 01-2.94.595 8.029 8.029 0 01-1.179-.08 2.852 2.852 0 01-.86-.258 1.217 1.217 0 01-.49-.418 1.207 1.207 0 01-.165-.676 1.71 1.71 0 01.467-1.217 1.705 1.705 0 011.307-.465h.083zm-.534-10.827c.35-.411.907-.61 1.696-.61.314-.03.63.01.927.117.296.106.564.276.785.497.39.473.588 1.07.557 1.677a2.354 2.354 0 01-.557 1.644c-.362.407-.935.59-1.72.59-.785 0-1.347-.195-1.7-.602a2.384 2.384 0 01-.546-1.643 2.464 2.464 0 01.558-1.67zM92.452 19.694a5.772 5.772 0 00-2.018-1.536 7.386 7.386 0 00-5.622 0 5.772 5.772 0 00-2.007 1.536 6.156 6.156 0 00-1.178 2.226 9.848 9.848 0 000 5.425c.234.813.635 1.571 1.178 2.227a5.678 5.678 0 002.007 1.474 7.568 7.568 0 005.602 0 5.694 5.694 0 002.026-1.493 6.095 6.095 0 001.178-2.227 9.85 9.85 0 000-5.425 6.036 6.036 0 00-1.166-2.207zm-4.822 9.214a2.489 2.489 0 01-1.256-.231 2.427 2.427 0 01-.966-.821c-.498-.768-.754-1.831-.754-3.206 0-1.374.256-2.45.754-3.194.499-.745 1.178-1.044 2.222-1.044.434-.033.87.046 1.261.23.393.184.728.466.974.818.506.74.765 1.816.765 3.19 0 1.375-.259 2.45-.765 3.202a2.449 2.449 0 01-.977.804 2.51 2.51 0 01-1.258.217v.035zM113.904 18.991c-.754-.91-1.963-1.37-3.561-1.37a4.345 4.345 0 00-2.564.768 4.84 4.84 0 00-.887.798c-.09.104-.177.207-.255.307a3.91 3.91 0 00-1.068-1.213 4.285 4.285 0 00-2.564-.68 4.74 4.74 0 00-1.453.215 4.49 4.49 0 00-1.177.569 4.264 4.264 0 00-.84.744 12.8 12.8 0 00-.146-.925.381.381 0 00-.11-.199.396.396 0 00-.204-.104c-.196-.035-.392-.058-.546-.077a6.215 6.215 0 00-1.134 0c-.185 0-.393.042-.573.077a.395.395 0 00-.234.134.378.378 0 00-.088.25v12.62c-.002.09.03.179.088.25.06.07.142.117.234.133.222.04.446.067.67.081a8.147 8.147 0 001.96-.08.395.395 0 00.233-.135.378.378 0 00.089-.25v-6.438a6.53 6.53 0 01.224-1.8c.118-.444.317-.863.589-1.237.217-.292.501-.531.828-.698.313-.152.657-.23 1.005-.23.252-.023.505.025.73.138.226.113.413.285.542.498.346.708.5 1.49.448 2.273v7.495c-.002.09.03.179.089.25.059.07.141.117.233.133a8.054 8.054 0 002.603 0 .396.396 0 00.233-.134.381.381 0 00.089-.25V23.78c0-1.079.235-1.897.699-2.43.216-.253.488-.453.796-.586.307-.133.642-.196.978-.182.273-.029.548.017.796.131s.459.294.61.518c.362.729.524 1.537.471 2.345v7.33c-.002.09.03.179.089.25.059.07.141.117.233.133.217.04.436.066.655.081.236 0 .452.027.644.027.193 0 .413 0 .656-.027.225-.013.45-.04.671-.08a.393.393 0 00.233-.135.376.376 0 00.089-.25V22.87c0-1.686-.357-2.99-1.103-3.878z" fill="#0C0D0F"></path></g><defs><clipPath id="icon-lagom-logo_svg__clip0"><path fill="#fff" transform="translate(0 .5)" d="M0 0h115v43H0z"></path></clipPath></defs></svg>