<svg width="326" height="500" viewBox="0 0 326 500" fill="none" xmlns="http://www.w3.org/2000/svg">
<path fill-rule="evenodd" clip-rule="evenodd" d="M0 326.771C0 327.781 0.508559 328.724 1.35303 329.278L59.4051 367.408C61.4001 368.719 64.0521 367.288 64.0521 364.901V295.477C64.0521 294.467 63.5435 293.524 62.6991 292.97L4.64696 254.84C2.65201 253.53 0 254.961 0 257.348V326.771Z" fill="url(#paint0_linear_3_69)"/>
<path fill-rule="evenodd" clip-rule="evenodd" d="M190.975 451.93C190.975 452.941 191.484 453.883 192.328 454.438L260.05 498.918C261.05 499.575 262.344 499.575 263.344 498.918L324.396 458.818C325.241 458.263 325.749 457.32 325.749 456.31V386.887C325.749 384.5 323.097 383.069 321.102 384.379L263.344 422.316C262.344 422.973 261.05 422.973 260.05 422.316L195.622 379.999C193.627 378.689 190.975 380.12 190.975 382.507V451.93Z" fill="url(#paint1_linear_3_69)"/>
<path fill-rule="evenodd" clip-rule="evenodd" d="M95.5744 389.546C95.5744 390.556 96.0829 391.499 96.9274 392.054L154.98 430.184C156.975 431.494 159.627 430.063 159.627 427.676V358.253C159.627 357.242 159.118 356.3 158.274 355.745L100.221 317.615C98.2264 316.305 95.5744 317.736 95.5744 320.123V389.546Z" fill="url(#paint2_linear_3_69)"/>
<path fill-rule="evenodd" clip-rule="evenodd" d="M324.54 344.913C325.384 344.358 325.893 343.416 325.893 342.406L325.912 119.883C325.912 117.497 323.26 116.065 321.265 117.376L263.223 155.499C262.379 156.053 261.87 156.996 261.87 158.006L261.871 380.516C261.871 382.903 264.523 384.334 266.518 383.023L324.54 344.913Z" fill="#1062FE"/>
<path d="M0 5.00002L0 63.0278C0 64.6847 1.34315 66.0278 3 66.0278L322.925 66.0278C324.582 66.0278 325.925 64.6847 325.925 63.0278L325.925 5.00002C325.925 3.34317 324.582 2.00002 322.925 2.00002L3 2.00002C1.34315 2.00002 0 3.34317 0 5.00002Z" fill="url(#paint3_linear_3_69)"/>
<path d="M10.4166 214.326C7.43772 214.326 6.27979 218.198 8.7696 219.834L225.702 362.319C227.697 363.629 230.349 362.198 230.349 359.811V290.388C230.349 289.378 229.84 288.435 228.996 287.881L117.76 214.819C117.271 214.497 116.698 214.326 116.113 214.326H10.4166Z" fill="url(#paint4_linear_3_69)"/>
<path fill-rule="evenodd" clip-rule="evenodd" d="M3.81764 216.581C2.01359 215.396 2.01359 212.751 3.81763 211.566L321.278 3.0522C323.273 1.74188 325.925 3.17291 325.925 5.5597V74.9828C325.925 75.9931 325.417 76.9356 324.572 77.4903L59.96 251.293C58.9602 251.95 57.6658 251.95 56.666 251.293L3.81764 216.581Z" fill="#1062FE"/>
<path d="M262 499.61C262.099 499.559 262.197 499.502 262.294 499.438L324.561 458.608C325.406 458.053 325.914 457.11 325.914 456.1V386.677C325.914 384.29 323.262 382.859 321.267 384.169L262 423.033V499.61Z" fill="#1062FE"/>
<path fill-rule="evenodd" clip-rule="evenodd" d="M322.818 2H322.925C324.582 2 325.925 3.34314 325.925 5V5.52256C325.925 5.53506 325.925 5.54747 325.925 5.5598V74.9964C325.921 76.0016 325.413 76.9382 324.572 77.4903L120.443 211.566L120.424 211.579L59.96 251.293C58.9602 251.95 57.6658 251.95 56.666 251.293L3.81763 216.581C2.2391 215.544 2.04178 213.39 3.22568 212.073C3.39481 211.885 3.59213 211.714 3.81763 211.566L321.278 3.05235C321.848 2.64229 322.36 2.29345 322.818 2Z" fill="#1062FE"/>
<defs>
<linearGradient id="paint0_linear_3_69" x1="5.23723e-06" y1="246.433" x2="387.086" y2="273.801" gradientUnits="userSpaceOnUse">
<stop stop-color="#1062FE"/>
<stop offset="1" stop-color="#09090B"/>
</linearGradient>
<linearGradient id="paint1_linear_3_69" x1="5.23723e-06" y1="246.433" x2="387.086" y2="273.801" gradientUnits="userSpaceOnUse">
<stop stop-color="#1062FE"/>
<stop offset="1" stop-color="#09090B"/>
</linearGradient>
<linearGradient id="paint2_linear_3_69" x1="5.23723e-06" y1="246.433" x2="387.086" y2="273.801" gradientUnits="userSpaceOnUse">
<stop stop-color="#1062FE"/>
<stop offset="1" stop-color="#09090B"/>
</linearGradient>
<linearGradient id="paint3_linear_3_69" x1="-1.57167e-06" y1="41.6128" x2="326.076" y2="41.6128" gradientUnits="userSpaceOnUse">
<stop stop-color="#1062FE"/>
<stop offset="1" stop-color="#09090B"/>
</linearGradient>
<linearGradient id="paint4_linear_3_69" x1="230.171" y1="365.272" x2="230.171" y2="191.392" gradientUnits="userSpaceOnUse">
<stop stop-color="#1062FE"/>
<stop offset="1" stop-color="#09090B"/>
</linearGradient>
</defs>
</svg>
