<svg width="56" height="56" fill="none" xmlns="http://www.w3.org/2000/svg"><g clip-path="url(#icon-one-page-order_svg__clip0_457_987)"><rect x="1" y="2" width="52" height="45" rx="4" fill="#fff" stroke="#1062FE" stroke-width="2" stroke-linejoin="round"></rect><rect x="16" y="12" width="8" height="14" rx="1" fill="#C6D9FF"></rect><path d="M21 12h2a1 1 0 011 1v2h-2a1 1 0 01-1-1v-2z" fill="#1062FE"></path><path fill-rule="evenodd" clip-rule="evenodd" d="M22 23c0-.552-.392-1-.875-1h-2.25c-.483 0-.875.448-.875 1s.392 1 .875 1h2.25c.483 0 .875-.448.875-1z" fill="#1062FE"></path><rect x="6.5" y="12.5" width="7" height="13" rx=".5" fill="#E6E8EC" stroke="#E6E8EC"></rect><rect x="26.5" y="12.5" width="7" height="13" rx=".5" fill="#E6E8EC" stroke="#E6E8EC"></rect><path d="M7 9h6" stroke="#DCDEE2" stroke-width="2" stroke-linecap="round" stroke-linejoin="round"></path><rect x="6" y="34" width="8" height="8" rx="1" fill="#C6D9FF"></rect><path d="M11 34h2a1 1 0 011 1v2h-2a1 1 0 01-1-1v-2z" fill="#1062FE"></path><rect x="16.5" y="34.5" width="7" height="7" rx=".5" fill="#E6E8EC" stroke="#E6E8EC"></rect><rect x="26.5" y="34.5" width="7" height="7" rx=".5" fill="#E6E8EC" stroke="#E6E8EC"></rect><path fill-rule="evenodd" clip-rule="evenodd" d="M14 31c0-.552-.415-1-.927-1H6.926C6.415 30 6 30.448 6 31s.415 1 .926 1h6.147c.512 0 .927-.448.927-1z" fill="#DCDEE2"></path><rect width="11" height="21" rx="1" transform="matrix(-1 0 0 1 48 9)" fill="#C6D9FF"></rect><path d="M40 26h5" stroke="#1265FF" stroke-width="2" stroke-linecap="round" stroke-linejoin="round"></path><path d="M53.486 54.37A2 2 0 0151.521 56H32.479a2 2 0 01-1.965-1.63l-2.069-11A2 2 0 0130.412 41H53.59a2 2 0 011.965 2.37l-2.068 11z" fill="#1062FE"></path><path d="M40.322 50.71l2.555 1.507a.673.673 0 00.32.08.643.643 0 00.322-.08l2.555-1.506a.238.238 0 000-.44l-1.98-1.167a.274.274 0 00-.318.028.284.284 0 00-.096.168l-.43 2.451v-5.63a.68.68 0 00-.093-.323.654.654 0 00-.228-.243l-2.556-1.507a.25.25 0 00-.26-.021.26.26 0 00-.112.24v5.877a.678.678 0 00.094.323.66.66 0 00.227.244z" fill="#fff"></path><path d="M33.11 42.111l3.362-5.555h10.972l3.667 5.555" stroke="#1062FE" stroke-width="2" stroke-linecap="round" stroke-linejoin="round"></path></g><defs><clipPath id="icon-one-page-order_svg__clip0_457_987"><path fill="#fff" d="M0 0h56v56H0z"></path></clipPath></defs></svg>