<svg width="144" height="144" fill="none" xmlns="http://www.w3.org/2000/svg"><g clip-path="url(#icon_svg__clip0_5094_5205)"><path d="M19.985 67.572a6 6 0 016-6h98.9a6 6 0 016 6v60.469a6 6 0 01-6 6h-98.9a6 6 0 01-6-6V67.572z" fill="url(#icon_svg__paint0_linear_5094_5205)"></path><path d="M12.076 138.026C8.585 134.169 11.322 128 16.524 128H53.46c.897 0 1.782.201 2.59.588l8.553 4.094a6.001 6.001 0 002.59.588h21.898c.994 0 1.972-.247 2.846-.718l7.116-3.834A5.992 5.992 0 01101.9 128h33.903c5.786 0 8.22 7.382 3.568 10.823l-4.053 2.999a6.003 6.003 0 01-3.569 1.177H19.239a6 6 0 01-4.448-1.974l-2.715-2.999z" fill="url(#icon_svg__paint1_linear_5094_5205)"></path><circle cx="76.911" cy="99.003" r="21.983" fill="url(#icon_svg__paint2_linear_5094_5205)"></circle><mask id="icon_svg__a" maskUnits="userSpaceOnUse" x="62" y="85" width="29" height="29" style="mask-type:alpha"><circle cx="76.928" cy="99.02" r="14" fill="url(#icon_svg__paint3_linear_5094_5205)"></circle></mask><g mask="url(#icon_svg__a)" fill="#fff"><path d="M76.933 100.005c-5.09 0-9.497 2.93-11.625 7.195-1.48 2.965 1.327 5.79 4.64 5.79h13.97c3.314 0 6.12-2.825 4.641-5.79-2.128-4.265-6.535-7.195-11.626-7.195zM82.01 92.02a5.008 5.008 0 11-10.014 0 5.008 5.008 0 0110.015 0z"></path></g><circle cx="93.928" cy="113.021" r="5" fill="#fff"></circle><path d="M5.928 3.021h94.64a6 6 0 016 6v54.997a6 6 0 01-6 6H72.385a3 3 0 00-3 3.048l.137 8.494c.037 2.33-2.482 3.811-4.5 2.645L41.849 70.823a6 6 0 00-3.001-.804H5.928a6 6 0 01-6-6V9.02a6 6 0 016-6z" fill="url(#icon_svg__paint4_linear_5094_5205)"></path><path fill-rule="evenodd" clip-rule="evenodd" d="M76.401 41.165c0-.73.593-1.324 1.324-1.324h1.06c.73 0 1.323.593 1.323 1.324v3.177c.754-.342 1.587-.497 2.468-.497 1.547 0 2.913.49 3.94 1.57 1.034 1.059 1.494 2.438 1.494 3.991v6.588c0 .731-.593 1.324-1.324 1.324h-1.08a1.324 1.324 0 01-1.325-1.324v-6.588c0-.734-.197-1.161-.461-1.439l-.012-.012c-.226-.244-.597-.445-1.317-.445-.762 0-1.295.238-1.714.674-.379.394-.669 1.06-.669 2.218v5.592c0 .731-.593 1.324-1.324 1.324h-1.059a1.324 1.324 0 01-1.324-1.324V41.165z" fill="url(#icon_svg__paint5_linear_5094_5205)"></path><path fill-rule="evenodd" clip-rule="evenodd" d="M70.296 52.69c.574-.857.939-2.178.939-4.11 0-1.936-.367-3.246-.937-4.086l-.004-.007c-.533-.794-1.203-1.15-2.142-1.15-.938 0-1.608.355-2.141 1.15l-.004.007c-.57.84-.937 2.15-.937 4.086 0 1.932.365 3.253.939 4.11.53.779 1.199 1.133 2.143 1.133.945 0 1.614-.354 2.144-1.133zm-7.315-10.444c1.233-1.75 3.007-2.638 5.171-2.638 2.165 0 3.939.888 5.171 2.638 1.181 1.677 1.704 3.83 1.704 6.334 0 2.503-.523 4.656-1.704 6.333-1.232 1.75-3.006 2.638-5.17 2.638-2.165 0-3.94-.887-5.172-2.638-1.18-1.677-1.703-3.83-1.703-6.333s.523-4.657 1.703-6.334z" fill="url(#icon_svg__paint6_linear_5094_5205)"></path><path fill-rule="evenodd" clip-rule="evenodd" d="M56.98 39.913c.14-.047.285-.072.431-.072h.954c.73 0 1.324.593 1.324 1.324v14.83c0 .73-.593 1.323-1.324 1.323h-1.123a1.324 1.324 0 01-1.324-1.324V44.2l-1.71.538a1.324 1.324 0 01-1.672-.903l-.275-.974a1.324 1.324 0 01.843-1.612l3.876-1.334z" fill="url(#icon_svg__paint7_linear_5094_5205)"></path><path fill-rule="evenodd" clip-rule="evenodd" d="M73.777 30.294c0-.244.198-.442.441-.442h.442c.243 0 .441.198.441.442v6.443a.441.441 0 01-.441.442h-.442a.441.441 0 01-.441-.442v-6.443zm-12.457.792c.702-.708 1.568-1.066 2.572-1.066 1.005 0 1.871.358 2.573 1.066a3.505 3.505 0 011.055 2.562c0 .998-.354 1.863-1.054 2.57l-.002.002c-.702.702-1.568 1.056-2.572 1.056-1.003 0-1.87-.354-2.571-1.056l-.002-.002a3.534 3.534 0 01-1.054-2.57c0-.998.354-1.86 1.055-2.562zm14.898-.74a.779.779 0 011.105 0c.155.146.242.34.242.557a.79.79 0 01-.795.794.795.795 0 01-.56-.226.79.79 0 01-.234-.568c0-.217.086-.411.242-.557zm-13.945 1.68c-.44.444-.658.977-.658 1.622 0 .645.218 1.18.658 1.631a2.19 2.19 0 001.62.664c.643 0 1.17-.22 1.61-.663a2.22 2.22 0 00.667-1.632 2.19 2.19 0 00-.666-1.621l-.003-.003c-.44-.45-.967-.67-1.609-.67s-1.173.22-1.619.671zm7.254.073a.441.441 0 00-.38-.216h-.44a.441.441 0 00-.442.441v4.413c0 .244.198.442.442.442h.44a.441.441 0 00.442-.442v-2.33c0-.5.126-.81.31-1 .197-.206.449-.315.793-.315.323 0 .51.091.63.22l.004.005c.134.14.223.348.223.675v2.745c0 .244.197.442.441.442h.45a.441.441 0 00.442-.442v-2.745c0-.624-.185-1.17-.592-1.586-.404-.425-.942-.62-1.562-.62-.431 0-.828.091-1.172.295l-.029.018zm10.174 0a.441.441 0 00-.38-.216h-.44a.441.441 0 00-.442.441v4.413c0 .244.198.442.442.442h.44a.441.441 0 00.442-.442v-2.33c0-.5.126-.81.31-1 .197-.206.449-.315.794-.315.322 0 .51.091.63.22l.003.005c.134.14.223.348.223.675v2.745c0 .244.197.442.441.442h.45a.441.441 0 00.442-.442v-2.745c0-.624-.185-1.17-.592-1.586-.403-.425-.942-.62-1.562-.62-.431 0-.828.091-1.172.295l-.029.018zm5.733 3.53c.258.222.578.34.989.34.29 0 .523-.06.712-.165.2-.111.338-.25.43-.412a.441.441 0 01.212-.19h-2.659c.076.165.182.306.316.427zm3.557-.948v.08a.441.441 0 01-.441.44h-.427a.43.43 0 01.051.027l.388.23a.441.441 0 01.155.605 2.427 2.427 0 01-.945.894l-.005.003a2.867 2.867 0 01-1.353.316c-.78 0-1.451-.252-1.978-.772l-.003-.002c-.526-.526-.782-1.195-.782-1.971 0-.764.25-1.425.76-1.95.521-.535 1.19-.795 1.967-.795.766 0 1.413.277 1.903.838.479.542.719 1.19.719 1.924 0 .043-.004.09-.009.133zm-1.438-.795a1.168 1.168 0 00-.312-.456l-.006-.006a1.202 1.202 0 00-.857-.332c-.4 0-.707.12-.952.35a1.31 1.31 0 00-.317.444h2.445zm-11.445-1.562c0-.244.198-.441.441-.441h.442c.243 0 .441.197.441.441v4.413a.441.441 0 01-.441.442h-.442a.441.441 0 01-.44-.442v-4.413z" fill="url(#icon_svg__paint8_linear_5094_5205)"></path><path d="M49.362 36.401a3.543 3.543 0 11-7.086 0 3.543 3.543 0 017.086 0z" fill="url(#icon_svg__paint9_linear_5094_5205)"></path><path fill-rule="evenodd" clip-rule="evenodd" d="M46.085 24.564c1.067 0 1.933.866 1.933 1.933v8.445a1.932 1.932 0 01-2.333 1.891 1.933 1.933 0 01.23 2.93l-3.838 3.84a1.933 1.933 0 01-2.733-2.733l3.84-3.84a1.93 1.93 0 011.766-.524 1.93 1.93 0 01-.797-1.564v-8.445c0-1.067.865-1.933 1.932-1.933z" fill="url(#icon_svg__paint10_linear_5094_5205)"></path><path fill-rule="evenodd" clip-rule="evenodd" d="M44.771 16.953c-9.648 0-17.47 7.822-17.47 17.47s7.822 17.47 17.47 17.47a2.648 2.648 0 010 5.296c-12.573 0-22.766-10.193-22.766-22.766 0-12.573 10.193-22.766 22.766-22.766 8.307 0 15.571 4.45 19.544 11.084a2.648 2.648 0 11-4.544 2.721c-3.056-5.102-8.631-8.509-15-8.509z" fill="url(#icon_svg__paint11_linear_5094_5205)"></path></g><defs><linearGradient id="icon_svg__paint0_linear_5094_5205" x1="75.435" y1="61.572" x2="75.435" y2="134.041" gradientUnits="userSpaceOnUse"><stop stop-color="#2AA789"></stop><stop offset="1" stop-color="#0BCC9E"></stop></linearGradient><linearGradient id="icon_svg__paint1_linear_5094_5205" x1="78.5" y1="128" x2="78.5" y2="142.999" gradientUnits="userSpaceOnUse"><stop stop-color="#F0F2F5"></stop><stop offset="1" stop-color="#F3F6FA"></stop></linearGradient><linearGradient id="icon_svg__paint2_linear_5094_5205" x1="76.911" y1="77.02" x2="76.911" y2="120.986" gradientUnits="userSpaceOnUse"><stop stop-color="#28BD95"></stop><stop offset="1" stop-color="#4AE0B8"></stop></linearGradient><linearGradient id="icon_svg__paint3_linear_5094_5205" x1="76.928" y1="85.02" x2="76.928" y2="113.021" gradientUnits="userSpaceOnUse"><stop stop-color="#28BD95"></stop><stop offset="1" stop-color="#4AE0B8"></stop></linearGradient><linearGradient id="icon_svg__paint4_linear_5094_5205" x1="53.248" y1="3.021" x2="53.248" y2="86.853" gradientUnits="userSpaceOnUse"><stop stop-color="#EAEEF5"></stop><stop offset="1" stop-color="#F3F6FA"></stop></linearGradient><linearGradient id="icon_svg__paint5_linear_5094_5205" x1="70.11" y1="39.608" x2="70.11" y2="57.551" gradientUnits="userSpaceOnUse"><stop stop-color="#2AA789"></stop><stop offset="1" stop-color="#0BCC9E"></stop></linearGradient><linearGradient id="icon_svg__paint6_linear_5094_5205" x1="70.11" y1="39.608" x2="70.11" y2="57.551" gradientUnits="userSpaceOnUse"><stop stop-color="#2AA789"></stop><stop offset="1" stop-color="#0BCC9E"></stop></linearGradient><linearGradient id="icon_svg__paint7_linear_5094_5205" x1="70.11" y1="39.608" x2="70.11" y2="57.551" gradientUnits="userSpaceOnUse"><stop stop-color="#2AA789"></stop><stop offset="1" stop-color="#0BCC9E"></stop></linearGradient><linearGradient id="icon_svg__paint8_linear_5094_5205" x1="74.632" y1="29.852" x2="74.632" y2="37.276" gradientUnits="userSpaceOnUse"><stop stop-color="#2AA789"></stop><stop offset="1" stop-color="#0BCC9E"></stop></linearGradient><linearGradient id="icon_svg__paint9_linear_5094_5205" x1="44.07" y1="24.564" x2="44.07" y2="44.168" gradientUnits="userSpaceOnUse"><stop stop-color="#2AA789"></stop><stop offset="1" stop-color="#0BCC9E"></stop></linearGradient><linearGradient id="icon_svg__paint10_linear_5094_5205" x1="44.07" y1="24.564" x2="44.07" y2="44.168" gradientUnits="userSpaceOnUse"><stop stop-color="#2AA789"></stop><stop offset="1" stop-color="#0BCC9E"></stop></linearGradient><linearGradient id="icon_svg__paint11_linear_5094_5205" x1="43.348" y1="11.657" x2="43.348" y2="57.189" gradientUnits="userSpaceOnUse"><stop stop-color="#2AA789"></stop><stop offset="1" stop-color="#0BCC9E"></stop></linearGradient><clipPath id="icon_svg__clip0_5094_5205"><path fill="#fff" d="M0 0h144v144H0z"></path></clipPath></defs></svg>