<svg width="56" height="56" fill="none" xmlns="http://www.w3.org/2000/svg"><path clip-rule="evenodd" d="M23 4a2 2 0 00-2-2H3a2 2 0 00-2 2v17a2 2 0 002 2h18a2 2 0 002-2V4z" stroke="#1062FE" stroke-width="2" stroke-linecap="round" stroke-linejoin="round" stroke-dasharray="6 4"></path><path opacity=".24" fill-rule="evenodd" clip-rule="evenodd" d="M23 31a2 2 0 00-2-2H3a2 2 0 00-2 2v17a2 2 0 002 2h18a2 2 0 002-2V31z" fill="#A5AEBF" stroke="#A5AEBF" stroke-width="2" stroke-linecap="round" stroke-linejoin="round"></path><path clip-rule="evenodd" d="M51 4a2 2 0 00-2-2H31a2 2 0 00-2 2v17a2 2 0 002 2h18a2 2 0 002-2V4z" stroke="#CED3DB" stroke-width="2" stroke-linecap="round" stroke-linejoin="round"></path><rect x="32" y="32" width="24" height="24" rx="4" fill="#1062FE"></rect><path d="M41.625 41.624L36 36M36 41v-5h5" stroke="#fff" stroke-width="2" stroke-linecap="round" stroke-linejoin="round"></path><g opacity=".6" stroke="#fff" stroke-width="2" stroke-linecap="round" stroke-linejoin="round"><path d="M46.375 41.624L52 36M52 41v-5h-5"></path></g><path d="M46.375 46.374L52 52M52 47v5h-5" stroke="#fff" stroke-width="2" stroke-linecap="round" stroke-linejoin="round"></path><g opacity=".6" stroke="#fff" stroke-width="2" stroke-linecap="round" stroke-linejoin="round"><path d="M41.625 46.374L36 52M36 47v5h5"></path></g></svg>